<svg preserveAspectRatio="none" width="100%" height="100%" overflow="visible" style="display: block;" viewBox="0 0 199.997 199.997" fill="none" xmlns="http://www.w3.org/2000/svg">
<g id="DottedGlobe">
<path id="Vector" opacity="0.3" d="M99.9983 21.1997C100.661 21.1997 101.198 20.6625 101.198 19.9997C101.198 19.337 100.661 18.7997 99.9983 18.7997C99.3355 18.7997 98.7983 19.337 98.7983 19.9997C98.7983 20.6625 99.3355 21.1997 99.9983 21.1997Z" fill="var(--fill-0, #A3A3A3)"/>
<path id="Vector_2" opacity="0.3" d="M99.9983 21.1997C100.661 21.1997 101.198 20.6625 101.198 19.9997C101.198 19.337 100.661 18.7997 99.9983 18.7997C99.3355 18.7997 98.7983 19.337 98.7983 19.9997C98.7983 20.6625 99.3355 21.1997 99.9983 21.1997Z" fill="var(--fill-0, #A3A3A3)"/>
<path id="Vector_3" opacity="0.3" d="M99.9983 21.1997C100.661 21.1997 101.198 20.6625 101.198 19.9997C101.198 19.337 100.661 18.7997 99.9983 18.7997C99.3355 18.7997 98.7983 19.337 98.7983 19.9997C98.7983 20.6625 99.3355 21.1997 99.9983 21.1997Z" fill="var(--fill-0, #A3A3A3)"/>
<path id="Vector_4" opacity="0.3" d="M99.9983 21.1997C100.661 21.1997 101.198 20.6625 101.198 19.9997C101.198 19.337 100.661 18.7997 99.9983 18.7997C99.3355 18.7997 98.7983 19.337 98.7983 19.9997C98.7983 20.6625 99.3355 21.1997 99.9983 21.1997Z" fill="var(--fill-0, #A3A3A3)"/>
<path id="Vector_5" opacity="0.3" d="M99.9983 21.1997C100.661 21.1997 101.198 20.6625 101.198 19.9997C101.198 19.337 100.661 18.7997 99.9983 18.7997C99.3355 18.7997 98.7983 19.337 98.7983 19.9997C98.7983 20.6625 99.3355 21.1997 99.9983 21.1997Z" fill="var(--fill-0, #A3A3A3)"/>
<path id="Vector_6" opacity="0.3" d="M99.9983 21.1997C100.661 21.1997 101.198 20.6625 101.198 19.9997C101.198 19.337 100.661 18.7997 99.9983 18.7997C99.3355 18.7997 98.7983 19.337 98.7983 19.9997C98.7983 20.6625 99.3355 21.1997 99.9983 21.1997Z" fill="var(--fill-0, #A3A3A3)"/>
<path id="Vector_7" opacity="0.3" d="M99.9983 21.1997C100.661 21.1997 101.198 20.6625 101.198 19.9997C101.198 19.337 100.661 18.7997 99.9983 18.7997C99.3355 18.7997 98.7983 19.337 98.7983 19.9997C98.7983 20.6625 99.3355 21.1997 99.9983 21.1997Z" fill="var(--fill-0, #A3A3A3)"/>
<path id="Vector_8" opacity="0.3" d="M99.9983 21.1997C100.661 21.1997 101.198 20.6625 101.198 19.9997C101.198 19.337 100.661 18.7997 99.9983 18.7997C99.3355 18.7997 98.7983 19.337 98.7983 19.9997C98.7983 20.6625 99.3355 21.1997 99.9983 21.1997Z" fill="var(--fill-0, #A3A3A3)"/>
<path id="Vector_9" opacity="0.3" d="M99.9983 21.1997C100.661 21.1997 101.198 20.6625 101.198 19.9997C101.198 19.337 100.661 18.7997 99.9983 18.7997C99.3355 18.7997 98.7983 19.337 98.7983 19.9997C98.7983 20.6625 99.3355 21.1997 99.9983 21.1997Z" fill="var(--fill-0, #A3A3A3)"/>
<path id="Vector_10" opacity="0.3" d="M99.9983 21.1997C100.661 21.1997 101.198 20.6625 101.198 19.9997C101.198 19.337 100.661 18.7997 99.9983 18.7997C99.3355 18.7997 98.7983 19.337 98.7983 19.9997C98.7983 20.6625 99.3355 21.1997 99.9983 21.1997Z" fill="var(--fill-0, #A3A3A3)"/>
<path id="Vector_11" opacity="0.3" d="M99.9983 21.1997C100.661 21.1997 101.198 20.6625 101.198 19.9997C101.198 19.337 100.661 18.7997 99.9983 18.7997C99.3355 18.7997 98.7983 19.337 98.7983 19.9997C98.7983 20.6625 99.3355 21.1997 99.9983 21.1997Z" fill="var(--fill-0, #A3A3A3)"/>
<path id="Vector_12" opacity="0.3" d="M99.9983 21.1997C100.661 21.1997 101.198 20.6625 101.198 19.9997C101.198 19.337 100.661 18.7997 99.9983 18.7997C99.3355 18.7997 98.7983 19.337 98.7983 19.9997C98.7983 20.6625 99.3355 21.1997 99.9983 21.1997Z" fill="var(--fill-0, #A3A3A3)"/>
<path id="Vector_13" opacity="0.3" d="M99.9983 21.1997C100.661 21.1997 101.198 20.6625 101.198 19.9997C101.198 19.337 100.661 18.7997 99.9983 18.7997C99.3355 18.7997 98.7983 19.337 98.7983 19.9997C98.7983 20.6625 99.3355 21.1997 99.9983 21.1997Z" fill="var(--fill-0, #A3A3A3)"/>
<path id="Vector_14" opacity="0.3" d="M99.9983 21.1997C100.661 21.1997 101.198 20.6625 101.198 19.9997C101.198 19.337 100.661 18.7997 99.9983 18.7997C99.3355 18.7997 98.7983 19.337 98.7983 19.9997C98.7983 20.6625 99.3355 21.1997 99.9983 21.1997Z" fill="var(--fill-0, #A3A3A3)"/>
<path id="Vector_15" opacity="0.3" d="M99.9983 21.1997C100.661 21.1997 101.198 20.6625 101.198 19.9997C101.198 19.337 100.661 18.7997 99.9983 18.7997C99.3355 18.7997 98.7983 19.337 98.7983 19.9997C98.7983 20.6625 99.3355 21.1997 99.9983 21.1997Z" fill="var(--fill-0, #A3A3A3)"/>
<path id="Vector_16" opacity="0.3" d="M99.9983 21.1997C100.661 21.1997 101.198 20.6625 101.198 19.9997C101.198 19.337 100.661 18.7997 99.9983 18.7997C99.3355 18.7997 98.7983 19.337 98.7983 19.9997C98.7983 20.6625 99.3355 21.1997 99.9983 21.1997Z" fill="var(--fill-0, #A3A3A3)"/>
<path id="Vector_17" opacity="0.3" d="M99.9983 21.1997C100.661 21.1997 101.198 20.6625 101.198 19.9997C101.198 19.337 100.661 18.7997 99.9983 18.7997C99.3355 18.7997 98.7983 19.337 98.7983 19.9997C98.7983 20.6625 99.3355 21.1997 99.9983 21.1997Z" fill="var(--fill-0, #A3A3A3)"/>
<path id="Vector_18" opacity="0.3" d="M99.9983 21.1997C100.661 21.1997 101.198 20.6625 101.198 19.9997C101.198 19.337 100.661 18.7997 99.9983 18.7997C99.3355 18.7997 98.7983 19.337 98.7983 19.9997C98.7983 20.6625 99.3355 21.1997 99.9983 21.1997Z" fill="var(--fill-0, #A3A3A3)"/>
<path id="Vector_19" opacity="0.3" d="M99.9983 21.1997C100.661 21.1997 101.198 20.6625 101.198 19.9997C101.198 19.337 100.661 18.7997 99.9983 18.7997C99.3355 18.7997 98.7983 19.337 98.7983 19.9997C98.7983 20.6625 99.3355 21.1997 99.9983 21.1997Z" fill="var(--fill-0, #A3A3A3)"/>
<path id="Vector_20" opacity="0.3" d="M99.9983 21.1997C100.661 21.1997 101.198 20.6625 101.198 19.9997C101.198 19.337 100.661 18.7997 99.9983 18.7997C99.3355 18.7997 98.7983 19.337 98.7983 19.9997C98.7983 20.6625 99.3355 21.1997 99.9983 21.1997Z" fill="var(--fill-0, #A3A3A3)"/>
<path id="Vector_21" opacity="0.3" d="M99.9983 21.1997C100.661 21.1997 101.198 20.6625 101.198 19.9997C101.198 19.337 100.661 18.7997 99.9983 18.7997C99.3355 18.7997 98.7983 19.337 98.7983 19.9997C98.7983 20.6625 99.3355 21.1997 99.9983 21.1997Z" fill="var(--fill-0, #A3A3A3)"/>
<path id="Vector_22" opacity="0.3" d="M99.9983 21.1997C100.661 21.1997 101.198 20.6625 101.198 19.9997C101.198 19.337 100.661 18.7997 99.9983 18.7997C99.3355 18.7997 98.7983 19.337 98.7983 19.9997C98.7983 20.6625 99.3355 21.1997 99.9983 21.1997Z" fill="var(--fill-0, #A3A3A3)"/>
<path id="Vector_23" opacity="0.3" d="M99.9983 21.1997C100.661 21.1997 101.198 20.6625 101.198 19.9997C101.198 19.337 100.661 18.7997 99.9983 18.7997C99.3355 18.7997 98.7983 19.337 98.7983 19.9997C98.7983 20.6625 99.3355 21.1997 99.9983 21.1997Z" fill="var(--fill-0, #A3A3A3)"/>
<path id="Vector_24" opacity="0.3" d="M99.9983 21.1997C100.661 21.1997 101.198 20.6625 101.198 19.9997C101.198 19.337 100.661 18.7997 99.9983 18.7997C99.3355 18.7997 98.7983 19.337 98.7983 19.9997C98.7983 20.6625 99.3355 21.1997 99.9983 21.1997Z" fill="var(--fill-0, #A3A3A3)"/>
<path id="Vector_25" opacity="0.363604" d="M111.277 27.9211C111.998 27.9211 112.583 27.3364 112.583 26.6151C112.583 25.8938 111.998 25.3091 111.277 25.3091C110.555 25.3091 109.971 25.8938 109.971 26.6151C109.971 27.3364 110.555 27.9211 111.277 27.9211Z" fill="var(--fill-0, #A3A3A3)"/>
<path id="Vector_26" opacity="0.372963" d="M106.674 28.4763C107.404 28.4763 107.996 27.8846 107.996 27.1547C107.996 26.4247 107.404 25.833 106.674 25.833C105.944 25.833 105.352 26.4247 105.352 27.1547C105.352 27.8846 105.944 28.4763 106.674 28.4763Z" fill="var(--fill-0, #A3A3A3)"/>
<path id="Vector_27" opacity="0.37735" d="M101.694 28.7338C102.428 28.7338 103.022 28.1388 103.022 27.4049C103.022 26.6709 102.428 26.076 101.694 26.076C100.96 26.076 100.365 26.6709 100.365 27.4049C100.365 28.1388 100.96 28.7338 101.694 28.7338Z" fill="var(--fill-0, #A3A3A3)"/>
<path id="Vector_28" opacity="0.376466" d="M96.6183 28.682C97.3514 28.682 97.9457 28.0877 97.9457 27.3546C97.9457 26.6215 97.3514 26.0271 96.6183 26.0271C95.8852 26.0271 95.2908 26.6215 95.2908 27.3546C95.2908 28.0877 95.8852 28.682 96.6183 28.682Z" fill="var(--fill-0, #A3A3A3)"/>
<path id="Vector_29" opacity="0.370371" d="M91.7327 28.3233C92.4602 28.3233 93.0499 27.7336 93.0499 27.0061C93.0499 26.2785 92.4602 25.6888 91.7327 25.6888C91.0051 25.6888 90.4154 26.2785 90.4154 27.0061C90.4154 27.7336 91.0051 28.3233 91.7327 28.3233Z" fill="var(--fill-0, #A3A3A3)"/>
<path id="Vector_30" opacity="0.35948" d="M87.3178 27.674C88.0353 27.674 88.6169 27.0924 88.6169 26.3749C88.6169 25.6574 88.0353 25.0757 87.3178 25.0757C86.6003 25.0757 86.0187 25.6574 86.0187 26.3749C86.0187 27.0924 86.6003 27.674 87.3178 27.674Z" fill="var(--fill-0, #A3A3A3)"/>
<path id="Vector_31" opacity="0.344536" d="M83.6446 26.7651C84.3483 26.7651 84.9188 26.1946 84.9188 25.4908C84.9188 24.7871 84.3483 24.2166 83.6446 24.2166C82.9408 24.2166 82.3703 24.7871 82.3703 25.4908C82.3703 26.1946 82.9408 26.7651 83.6446 26.7651Z" fill="var(--fill-0, #A3A3A3)"/>
<path id="Vector_32" opacity="0.326556" d="M80.963 25.6429C81.6502 25.6429 82.2073 25.0858 82.2073 24.3986C82.2073 23.7115 81.6502 23.1544 80.963 23.1544C80.2758 23.1544 79.7188 23.7115 79.7188 24.3986C79.7188 25.0858 80.2758 25.6429 80.963 25.6429Z" fill="var(--fill-0, #A3A3A3)"/>
<path id="Vector_33" opacity="0.306767" d="M79.4876 24.3702C80.1565 24.3702 80.6989 23.8279 80.6989 23.1589C80.6989 22.4899 80.1565 21.9476 79.4876 21.9476C78.8186 21.9476 78.2763 22.4899 78.2763 23.1589C78.2763 23.8279 78.8186 24.3702 79.4876 24.3702Z" fill="var(--fill-0, #A3A3A3)"/>
<path id="Vector_34" opacity="0.286517" d="M79.376 23.0473C80.0387 23.0473 80.576 22.5101 80.576 21.8473C80.576 21.1846 80.0387 20.6473 79.376 20.6473C78.7132 20.6473 78.176 21.1846 78.176 21.8473C78.176 22.5101 78.7132 23.0473 79.376 23.0473Z" fill="var(--fill-0, #A3A3A3)"/>
<path id="Vector_35" opacity="0.267186" d="M80.7055 21.7532C81.3682 21.7532 81.9055 21.2159 81.9055 20.5532C81.9055 19.8904 81.3682 19.3532 80.7055 19.3532C80.0427 19.3532 79.5055 19.8904 79.5055 20.5532C79.5055 21.2159 80.0427 21.7532 80.7055 21.7532Z" fill="var(--fill-0, #A3A3A3)"/>
<path id="Vector_36" opacity="0.25009" d="M83.4489 20.5723C84.1116 20.5723 84.6489 20.035 84.6489 19.3723C84.6489 18.7095 84.1116 18.1723 83.4489 18.1723C82.7861 18.1723 82.2489 18.7095 82.2489 19.3723C82.2489 20.035 82.7861 20.5723 83.4489 20.5723Z" fill="var(--fill-0, #A3A3A3)"/>
<path id="Vector_37" opacity="0.236396" d="M87.4576 19.6006C88.1203 19.6006 88.6576 19.0634 88.6576 18.4006C88.6576 17.7379 88.1203 17.2006 87.4576 17.2006C86.7949 17.2006 86.2576 17.7379 86.2576 18.4006C86.2576 19.0634 86.7949 19.6006 87.4576 19.6006Z" fill="var(--fill-0, #A3A3A3)"/>
<path id="Vector_38" opacity="0.227037" d="M92.4582 18.9229C93.121 18.9229 93.6582 18.3856 93.6582 17.7229C93.6582 17.0602 93.121 16.5229 92.4582 16.5229C91.7955 16.5229 91.2582 17.0602 91.2582 17.7229C91.2582 18.3856 91.7955 18.9229 92.4582 18.9229Z" fill="var(--fill-0, #A3A3A3)"/>
<path id="Vector_39" opacity="0.22265" d="M98.0694 18.6014C98.7321 18.6014 99.2694 18.0641 99.2694 17.4014C99.2694 16.7386 98.7321 16.2014 98.0694 16.2014C97.4066 16.2014 96.8694 16.7386 96.8694 17.4014C96.8694 18.0641 97.4066 18.6014 98.0694 18.6014Z" fill="var(--fill-0, #A3A3A3)"/>
<path id="Vector_40" opacity="0.223534" d="M103.838 18.6666C104.501 18.6666 105.038 18.1293 105.038 17.4666C105.038 16.8038 104.501 16.2666 103.838 16.2666C103.176 16.2666 102.638 16.8038 102.638 17.4666C102.638 18.1293 103.176 18.6666 103.838 18.6666Z" fill="var(--fill-0, #A3A3A3)"/>
<path id="Vector_41" opacity="0.229629" d="M109.294 19.1119C109.957 19.1119 110.494 18.5746 110.494 17.9119C110.494 17.2491 109.957 16.7119 109.294 16.7119C108.631 16.7119 108.094 17.2491 108.094 17.9119C108.094 18.5746 108.631 19.1119 109.294 19.1119Z" fill="var(--fill-0, #A3A3A3)"/>
<path id="Vector_42" opacity="0.24052" d="M114.001 19.8955C114.664 19.8955 115.201 19.3583 115.201 18.6955C115.201 18.0328 114.664 17.4955 114.001 17.4955C113.339 17.4955 112.801 18.0328 112.801 18.6955C112.801 19.3583 113.339 19.8955 114.001 19.8955Z" fill="var(--fill-0, #A3A3A3)"/>
<path id="Vector_43" opacity="0.255464" d="M117.613 20.9473C118.275 20.9473 118.813 20.41 118.813 19.7473C118.813 19.0845 118.275 18.5473 117.613 18.5473C116.95 18.5473 116.413 19.0845 116.413 19.7473C116.413 20.41 116.95 20.9473 117.613 20.9473Z" fill="var(--fill-0, #A3A3A3)"/>
<path id="Vector_44" opacity="0.273444" d="M119.895 22.1768C120.558 22.1768 121.095 21.6395 121.095 20.9768C121.095 20.314 120.558 19.7768 119.895 19.7768C119.232 19.7768 118.695 20.314 118.695 20.9768C118.695 21.6395 119.232 22.1768 119.895 22.1768Z" fill="var(--fill-0, #A3A3A3)"/>
<path id="Vector_45" opacity="0.293233" d="M120.742 23.4873C121.404 23.4873 121.942 22.95 121.942 22.2873C121.942 21.6245 121.404 21.0873 120.742 21.0873C120.079 21.0873 119.542 21.6245 119.542 22.2873C119.542 22.95 120.079 23.4873 120.742 23.4873Z" fill="var(--fill-0, #A3A3A3)"/>
<path id="Vector_46" opacity="0.313483" d="M120.162 24.8066C120.838 24.8066 121.385 24.2593 121.385 23.5841C121.385 22.909 120.838 22.3617 120.162 22.3617C119.487 22.3617 118.94 22.909 118.94 23.5841C118.94 24.2593 119.487 24.8066 120.162 24.8066Z" fill="var(--fill-0, #A3A3A3)"/>
<path id="Vector_47" opacity="0.332814" d="M118.264 26.037C118.957 26.037 119.519 25.4753 119.519 24.7824C119.519 24.0894 118.957 23.5277 118.264 23.5277C117.571 23.5277 117.009 24.0894 117.009 24.7824C117.009 25.4753 117.571 26.037 118.264 26.037Z" fill="var(--fill-0, #A3A3A3)"/>
<path id="Vector_48" opacity="0.34991" d="M115.226 27.0943C115.935 27.0943 116.509 26.5198 116.509 25.8111C116.509 25.1024 115.935 24.5279 115.226 24.5279C114.517 24.5279 113.943 25.1024 113.943 25.8111C113.943 26.5198 114.517 27.0943 115.226 27.0943Z" fill="var(--fill-0, #A3A3A3)"/>
<path id="Vector_49" opacity="0.422873" d="M120.81 38.5572C121.586 38.5572 122.215 37.9283 122.215 37.1525C122.215 36.3766 121.586 35.7477 120.81 35.7477C120.034 35.7477 119.405 36.3766 119.405 37.1525C119.405 37.9283 120.034 38.5572 120.81 38.5572Z" fill="var(--fill-0, #A3A3A3)"/>
<path id="Vector_50" opacity="0.440954" d="M112.241 39.4349C113.033 39.4349 113.676 38.7924 113.676 38C113.676 37.2075 113.033 36.565 112.241 36.565C111.448 36.565 110.806 37.2075 110.806 38C110.806 38.7924 111.448 39.4349 112.241 39.4349Z" fill="var(--fill-0, #A3A3A3)"/>
<path id="Vector_51" opacity="0.449429" d="M103.098 39.8384C103.899 39.8384 104.547 39.1896 104.547 38.3893C104.547 37.589 103.899 36.9403 103.098 36.9403C102.298 36.9403 101.649 37.589 101.649 38.3893C101.649 39.1896 102.298 39.8384 103.098 39.8384Z" fill="var(--fill-0, #A3A3A3)"/>
<path id="Vector_52" opacity="0.447721" d="M93.8138 39.7575C94.6125 39.7575 95.26 39.11 95.26 38.3113C95.26 37.5126 94.6125 36.8651 93.8138 36.8651C93.0151 36.8651 92.3676 37.5126 92.3676 38.3113C92.3676 39.11 93.0151 39.7575 93.8138 39.7575Z" fill="var(--fill-0, #A3A3A3)"/>
<path id="Vector_53" opacity="0.435946" d="M84.814 39.1941C85.6019 39.1941 86.2406 38.5554 86.2406 37.7675C86.2406 36.9796 85.6019 36.3409 84.814 36.3409C84.0262 36.3409 83.3875 36.9796 83.3875 37.7675C83.3875 38.5554 84.0262 39.1941 84.814 39.1941Z" fill="var(--fill-0, #A3A3A3)"/>
<path id="Vector_54" opacity="0.414907" d="M76.5341 38.1633C77.3026 38.1633 77.9256 37.5403 77.9256 36.7718C77.9256 36.0032 77.3026 35.3802 76.5341 35.3802C75.7656 35.3802 75.1426 36.0032 75.1426 36.7718C75.1426 37.5403 75.7656 38.1633 76.5341 38.1633Z" fill="var(--fill-0, #A3A3A3)"/>
<path id="Vector_55" opacity="0.386036" d="M69.4248 36.6957C70.1667 36.6957 70.7682 36.0943 70.7682 35.3523C70.7682 34.6104 70.1667 34.0089 69.4248 34.0089C68.6829 34.0089 68.0814 34.6104 68.0814 35.3523C68.0814 36.0943 68.6829 36.6957 69.4248 36.6957Z" fill="var(--fill-0, #A3A3A3)"/>
<path id="Vector_56" opacity="0.351303" d="M63.9523 34.8434C64.6622 34.8434 65.2378 34.2679 65.2378 33.5579C65.2378 32.8479 64.6622 32.2724 63.9523 32.2724C63.2423 32.2724 62.6668 32.8479 62.6668 33.5579C62.6668 34.2679 63.2423 34.8434 63.9523 34.8434Z" fill="var(--fill-0, #A3A3A3)"/>
<path id="Vector_57" opacity="0.313073" d="M60.5806 32.686C61.2554 32.686 61.8024 32.139 61.8024 31.4642C61.8024 30.7894 61.2554 30.2424 60.5806 30.2424C59.9059 30.2424 59.3588 30.7894 59.3588 31.4642C59.3588 32.139 59.9059 32.686 60.5806 32.686Z" fill="var(--fill-0, #A3A3A3)"/>
<path id="Vector_58" opacity="0.273953" d="M59.7327 30.3802C60.3954 30.3802 60.9327 29.843 60.9327 29.1802C60.9327 28.5175 60.3954 27.9802 59.7327 27.9802C59.0699 27.9802 58.5327 28.5175 58.5327 29.1802C58.5327 29.843 59.0699 30.3802 59.7327 30.3802Z" fill="var(--fill-0, #A3A3A3)"/>
<path id="Vector_59" opacity="0.236607" d="M61.7247 28.0534C62.3875 28.0534 62.9247 27.5161 62.9247 26.8534C62.9247 26.1906 62.3875 25.6534 61.7247 25.6534C61.062 25.6534 60.5247 26.1906 60.5247 26.8534C60.5247 27.5161 61.062 28.0534 61.7247 28.0534Z" fill="var(--fill-0, #A3A3A3)"/>
<path id="Vector_60" opacity="0.213964" d="M135.294 26.5666C135.957 26.5666 136.494 26.0293 136.494 25.3666C136.494 24.7038 135.957 24.1666 135.294 24.1666C134.632 24.1666 134.094 24.7038 134.094 25.3666C134.094 26.0293 134.632 26.5666 135.294 26.5666Z" fill="var(--fill-0, #A3A3A3)"/>
<path id="Vector_61" opacity="0.248697" d="M139.264 28.8231C139.927 28.8231 140.464 28.2859 140.464 27.6231C140.464 26.9604 139.927 26.4231 139.264 26.4231C138.601 26.4231 138.064 26.9604 138.064 27.6231C138.064 28.2859 138.601 28.8231 139.264 28.8231Z" fill="var(--fill-0, #A3A3A3)"/>
<path id="Vector_62" opacity="0.286927" d="M140.284 31.1544C140.947 31.1544 141.484 30.6171 141.484 29.9544C141.484 29.2916 140.947 28.7544 140.284 28.7544C139.622 28.7544 139.084 29.2916 139.084 29.9544C139.084 30.6171 139.622 31.1544 140.284 31.1544Z" fill="var(--fill-0, #A3A3A3)"/>
<path id="Vector_63" opacity="0.326047" d="M138.553 33.4328C139.24 33.4328 139.796 32.8761 139.796 32.1894C139.796 31.5027 139.24 30.946 138.553 30.946C137.866 30.946 137.31 31.5027 137.31 32.1894C137.31 32.8761 137.866 33.4328 138.553 33.4328Z" fill="var(--fill-0, #A3A3A3)"/>
<path id="Vector_64" opacity="0.363393" d="M134.431 35.4994C135.152 35.4994 135.737 34.9149 135.737 34.1938C135.737 33.4727 135.152 32.8881 134.431 32.8881C133.71 32.8881 133.125 33.4727 133.125 34.1938C133.125 34.9149 133.71 35.4994 134.431 35.4994Z" fill="var(--fill-0, #A3A3A3)"/>
<path id="Vector_65" opacity="0.396418" d="M128.361 37.2308C129.112 37.2308 129.721 36.6216 129.721 35.8701C129.721 35.1186 129.112 34.5094 128.361 34.5094C127.609 34.5094 127 35.1186 127 35.8701C127 36.6216 127.609 37.2308 128.361 37.2308Z" fill="var(--fill-0, #A3A3A3)"/>
<path id="Vector_66" opacity="0.473768" d="M128.34 52.0755C129.163 52.0755 129.83 51.4086 129.83 50.5859C129.83 49.7632 129.163 49.0963 128.34 49.0963C127.517 49.0963 126.85 49.7632 126.85 50.5859C126.85 51.4086 127.517 52.0755 128.34 52.0755Z" fill="var(--fill-0, #A3A3A3)"/>
<path id="Vector_67" opacity="0.499339" d="M116.59 53.0211C117.436 53.0211 118.122 52.3351 118.122 51.4889C118.122 50.6427 117.436 49.9567 116.59 49.9567C115.743 49.9567 115.057 50.6427 115.057 51.4889C115.057 52.3351 115.743 53.0211 116.59 53.0211Z" fill="var(--fill-0, #A3A3A3)"/>
<path id="Vector_68" opacity="0.511325" d="M104.19 53.4532C105.048 53.4532 105.742 52.7582 105.742 51.9009C105.742 51.0437 105.048 50.3487 104.19 50.3487C103.333 50.3487 102.638 51.0437 102.638 51.9009C102.638 52.7582 103.333 53.4532 104.19 53.4532Z" fill="var(--fill-0, #A3A3A3)"/>
<path id="Vector_69" opacity="0.508909" d="M91.632 53.3665C92.487 53.3665 93.1801 52.6733 93.1801 51.8183C93.1801 50.9633 92.487 50.2701 91.632 50.2701C90.7769 50.2701 90.0838 50.9633 90.0838 51.8183C90.0838 52.6733 90.7769 53.3665 91.632 53.3665Z" fill="var(--fill-0, #A3A3A3)"/>
<path id="Vector_70" opacity="0.492257" d="M79.393 52.7626C80.2328 52.7626 80.9135 52.0819 80.9135 51.2422C80.9135 50.4025 80.2328 49.7218 79.393 49.7218C78.5533 49.7218 77.8726 50.4025 77.8726 51.2422C77.8726 52.0819 78.5533 52.7626 79.393 52.7626Z" fill="var(--fill-0, #A3A3A3)"/>
<path id="Vector_71" opacity="0.462503" d="M67.974 51.6484C68.7863 51.6484 69.4449 50.9898 69.4449 50.1775C69.4449 49.3652 68.7863 48.7067 67.974 48.7067C67.1617 48.7067 66.5032 49.3652 66.5032 50.1775C66.5032 50.9898 67.1617 51.6484 67.974 51.6484Z" fill="var(--fill-0, #A3A3A3)"/>
<path id="Vector_72" opacity="0.421674" d="M57.9267 50.0411C58.7015 50.0411 59.3295 49.413 59.3295 48.6383C59.3295 47.8636 58.7015 47.2355 57.9267 47.2355C57.152 47.2355 56.5239 47.8636 56.5239 48.6383C56.5239 49.413 57.152 50.0411 57.9267 50.0411Z" fill="var(--fill-0, #A3A3A3)"/>
<path id="Vector_73" opacity="0.372553" d="M49.8728 47.9768C50.6023 47.9768 51.1937 47.3854 51.1937 46.6558C51.1937 45.9263 50.6023 45.3349 49.8728 45.3349C49.1433 45.3349 48.5519 45.9263 48.5519 46.6558C48.5519 47.3854 49.1433 47.9768 49.8728 47.9768Z" fill="var(--fill-0, #A3A3A3)"/>
<path id="Vector_74" opacity="0.318489" d="M44.5011 45.52C45.1808 45.52 45.7319 44.9689 45.7319 44.2892C45.7319 43.6094 45.1808 43.0583 44.5011 43.0583C43.8213 43.0583 43.2702 43.6094 43.2702 44.2892C43.2702 44.9689 43.8213 45.52 44.5011 45.52Z" fill="var(--fill-0, #A3A3A3)"/>
<path id="Vector_75" opacity="0.263164" d="M42.5259 42.8392C43.1886 42.8392 43.7259 42.302 43.7259 41.6392C43.7259 40.9765 43.1886 40.4392 42.5259 40.4392C41.8631 40.4392 41.3259 40.9765 41.3259 41.6392C41.3259 42.302 41.8631 42.8392 42.5259 42.8392Z" fill="var(--fill-0, #A3A3A3)"/>
<path id="Vector_76" opacity="0.210349" d="M44.5913 40.0634C45.254 40.0634 45.7913 39.5262 45.7913 38.8634C45.7913 38.2007 45.254 37.6634 44.5913 37.6634C43.9285 37.6634 43.3913 38.2007 43.3913 38.8634C43.3913 39.5262 43.9285 40.0634 44.5913 40.0634Z" fill="var(--fill-0, #A3A3A3)"/>
<path id="Vector_77" opacity="0.227447" d="M156.575 40.9904C157.238 40.9904 157.775 40.4531 157.775 39.7904C157.775 39.1277 157.238 38.5904 156.575 38.5904C155.912 38.5904 155.375 39.1277 155.375 39.7904C155.375 40.4531 155.912 40.9904 156.575 40.9904Z" fill="var(--fill-0, #A3A3A3)"/>
<path id="Vector_78" opacity="0.281511" d="M157.232 43.7455C157.895 43.7455 158.432 43.2082 158.432 42.5455C158.432 41.8827 157.895 41.3455 157.232 41.3455C156.57 41.3455 156.032 41.8827 156.032 42.5455C156.032 43.2082 156.57 43.7455 157.232 43.7455Z" fill="var(--fill-0, #A3A3A3)"/>
<path id="Vector_79" opacity="0.336836" d="M154.047 46.3768C154.744 46.3768 155.309 45.812 155.309 45.1154C155.309 44.4187 154.744 43.854 154.047 43.854C153.351 43.854 152.786 44.4187 152.786 45.1154C152.786 45.812 153.351 46.3768 154.047 46.3768Z" fill="var(--fill-0, #A3A3A3)"/>
<path id="Vector_80" opacity="0.389651" d="M147.702 48.7124C148.447 48.7124 149.051 48.1083 149.051 47.363C149.051 46.6178 148.447 46.0136 147.702 46.0136C146.957 46.0136 146.353 46.6178 146.353 47.363C146.353 48.1083 146.957 48.7124 147.702 48.7124Z" fill="var(--fill-0, #A3A3A3)"/>
<path id="Vector_81" opacity="0.436356" d="M138.91 50.6298C139.698 50.6298 140.337 49.9908 140.337 49.2026C140.337 48.4143 139.698 47.7753 138.91 47.7753C138.122 47.7753 137.483 48.4143 137.483 49.2026C137.483 49.9908 138.122 50.6298 138.91 50.6298Z" fill="var(--fill-0, #A3A3A3)"/>
<path id="Vector_82" opacity="0.512822" d="M133.75 67.579C134.609 67.579 135.305 66.8829 135.305 66.0243C135.305 65.1657 134.609 64.4696 133.75 64.4696C132.892 64.4696 132.196 65.1657 132.196 66.0243C132.196 66.8829 132.892 67.579 133.75 67.579Z" fill="var(--fill-0, #A3A3A3)"/>
<path id="Vector_83" opacity="0.544139" d="M119.688 68.3679C120.575 68.3679 121.295 67.6485 121.295 66.761C121.295 65.8736 120.575 65.1541 119.688 65.1541C118.8 65.1541 118.081 65.8736 118.081 66.761C118.081 67.6485 118.8 68.3679 119.688 68.3679Z" fill="var(--fill-0, #A3A3A3)"/>
<path id="Vector_84" opacity="0.558819" d="M104.965 68.7269C105.866 68.7269 106.597 67.9965 106.597 67.0956C106.597 66.1946 105.866 65.4642 104.965 65.4642C104.064 65.4642 103.334 66.1946 103.334 67.0956C103.334 67.9965 104.064 68.7269 104.965 68.7269Z" fill="var(--fill-0, #A3A3A3)"/>
<path id="Vector_85" opacity="0.555861" d="M90.0821 68.6551C90.9804 68.6551 91.7085 67.9269 91.7085 67.0286C91.7085 66.1304 90.9804 65.4022 90.0821 65.4022C89.1839 65.4022 88.4557 66.1304 88.4557 67.0286C88.4557 67.9269 89.1839 68.6551 90.0821 68.6551Z" fill="var(--fill-0, #A3A3A3)"/>
<path id="Vector_86" opacity="0.535466" d="M75.5218 68.1528C76.4012 68.1528 77.1142 67.4398 77.1142 66.5603C77.1142 65.6808 76.4012 64.9679 75.5218 64.9679C74.6423 64.9679 73.9293 65.6808 73.9293 66.5603C73.9293 67.4398 74.6423 68.1528 75.5218 68.1528Z" fill="var(--fill-0, #A3A3A3)"/>
<path id="Vector_87" opacity="0.499024" d="M61.8006 67.221C62.6466 67.221 63.3323 66.5352 63.3323 65.6893C63.3323 64.8433 62.6466 64.1576 61.8006 64.1576C60.9547 64.1576 60.2689 64.8433 60.2689 65.6893C60.2689 66.5352 60.9547 67.221 61.8006 67.221Z" fill="var(--fill-0, #A3A3A3)"/>
<path id="Vector_88" opacity="0.44902" d="M49.5158 65.8659C50.3157 65.8659 50.9642 65.2174 50.9642 64.4175C50.9642 63.6176 50.3157 62.9691 49.5158 62.9691C48.7159 62.9691 48.0675 63.6176 48.0675 64.4175C48.0675 65.2174 48.7159 65.8659 49.5158 65.8659Z" fill="var(--fill-0, #A3A3A3)"/>
<path id="Vector_89" opacity="0.388859" d="M39.3841 64.1048C40.1286 64.1048 40.7322 63.5012 40.7322 62.7567C40.7322 62.0122 40.1286 61.4086 39.3841 61.4086C38.6395 61.4086 38.036 62.0122 38.036 62.7567C38.036 63.5012 38.6395 64.1048 39.3841 64.1048Z" fill="var(--fill-0, #A3A3A3)"/>
<path id="Vector_90" opacity="0.322644" d="M32.2593 61.9776C32.9429 61.9776 33.497 61.4235 33.497 60.7399C33.497 60.0563 32.9429 59.5021 32.2593 59.5021C31.5757 59.5021 31.0216 60.0563 31.0216 60.7399C31.0216 61.4235 31.5757 61.9776 32.2593 61.9776Z" fill="var(--fill-0, #A3A3A3)"/>
<path id="Vector_91" opacity="0.254885" d="M29.1047 59.6363C29.7674 59.6363 30.3047 59.0991 30.3047 58.4363C30.3047 57.7736 29.7674 57.2363 29.1047 57.2363C28.4419 57.2363 27.9047 57.7736 27.9047 58.4363C27.9047 59.0991 28.4419 59.6363 29.1047 59.6363Z" fill="var(--fill-0, #A3A3A3)"/>
<path id="Vector_92" opacity="0.211141" d="M170.307 58.0001C170.97 58.0001 171.507 57.4629 171.507 56.8001C171.507 56.1374 170.97 55.6001 170.307 55.6001C169.645 55.6001 169.107 56.1374 169.107 56.8001C169.107 57.4629 169.645 58.0001 170.307 58.0001Z" fill="var(--fill-0, #A3A3A3)"/>
<path id="Vector_93" opacity="0.277356" d="M170.343 60.4298C171.006 60.4298 171.543 59.8925 171.543 59.2298C171.543 58.567 171.006 58.0298 170.343 58.0298C169.68 58.0298 169.143 58.567 169.143 59.2298C169.143 59.8925 169.68 60.4298 170.343 60.4298Z" fill="var(--fill-0, #A3A3A3)"/>
<path id="Vector_94" opacity="0.345115" d="M165.754 62.7234C166.459 62.7234 167.03 62.1525 167.03 61.4482C167.03 60.744 166.459 60.173 165.754 60.173C165.05 60.173 164.479 60.744 164.479 61.4482C164.479 62.1525 165.05 62.7234 165.754 62.7234Z" fill="var(--fill-0, #A3A3A3)"/>
<path id="Vector_95" opacity="0.409799" d="M157.524 64.7351C158.288 64.7351 158.907 64.116 158.907 63.3521C158.907 62.5883 158.288 61.9691 157.524 61.9691C156.761 61.9691 156.141 62.5883 156.141 63.3521C156.141 64.116 156.761 64.7351 157.524 64.7351Z" fill="var(--fill-0, #A3A3A3)"/>
<path id="Vector_96" opacity="0.467001" d="M146.587 66.3638C147.403 66.3638 148.065 65.7019 148.065 64.8854C148.065 64.069 147.403 63.4071 146.587 63.4071C145.77 63.4071 145.109 64.069 145.109 64.8854C145.109 65.7019 145.77 66.3638 146.587 66.3638Z" fill="var(--fill-0, #A3A3A3)"/>
<path id="Vector_97" opacity="0.537372" d="M137.001 84.3082C137.882 84.3082 138.596 83.5939 138.596 82.7126C138.596 81.8314 137.882 81.117 137.001 81.117C136.119 81.117 135.405 81.8314 135.405 82.7126C135.405 83.5939 136.119 84.3082 137.001 84.3082Z" fill="var(--fill-0, #A3A3A3)"/>
<path id="Vector_98" opacity="0.572302" d="M121.539 84.7762C122.453 84.7762 123.193 84.0358 123.193 83.1224C123.193 82.209 122.453 81.4686 121.539 81.4686C120.626 81.4686 119.885 82.209 119.885 83.1224C119.885 84.0358 120.626 84.7762 121.539 84.7762Z" fill="var(--fill-0, #A3A3A3)"/>
<path id="Vector_99" opacity="0.588675" d="M105.427 84.9895C106.356 84.9895 107.108 84.2368 107.108 83.3084C107.108 82.3799 106.356 81.6273 105.427 81.6273C104.499 81.6273 103.746 82.3799 103.746 83.3084C103.746 84.2368 104.499 84.9895 105.427 84.9895Z" fill="var(--fill-0, #A3A3A3)"/>
<path id="Vector_100" opacity="0.585375" d="M89.158 84.9468C90.0834 84.9468 90.8336 84.1966 90.8336 83.2711C90.8336 82.3457 90.0834 81.5955 89.158 81.5955C88.2326 81.5955 87.4824 82.3457 87.4824 83.2711C87.4824 84.1966 88.2326 84.9468 89.158 84.9468Z" fill="var(--fill-0, #A3A3A3)"/>
<path id="Vector_101" opacity="0.562628" d="M73.2053 84.6488C74.1097 84.6488 74.843 83.9155 74.843 83.0111C74.843 82.1066 74.1097 81.3733 73.2053 81.3733C72.3008 81.3733 71.5676 82.1066 71.5676 83.0111C71.5676 83.9155 72.3008 84.6488 73.2053 84.6488Z" fill="var(--fill-0, #A3A3A3)"/>
<path id="Vector_102" opacity="0.521983" d="M58.0822 84.0953C58.9493 84.0953 59.6522 83.3924 59.6522 82.5254C59.6522 81.6583 58.9493 80.9554 58.0822 80.9554C57.2152 80.9554 56.5123 81.6583 56.5123 82.5254C56.5123 83.3924 57.2152 84.0953 58.0822 84.0953Z" fill="var(--fill-0, #A3A3A3)"/>
<path id="Vector_103" opacity="0.46621" d="M44.4009 83.2893C45.2166 83.2893 45.8779 82.628 45.8779 81.8123C45.8779 80.9966 45.2166 80.3353 44.4009 80.3353C43.5852 80.3353 42.9239 80.9966 42.9239 81.8123C42.9239 82.628 43.5852 83.2893 44.4009 83.2893Z" fill="var(--fill-0, #A3A3A3)"/>
<path id="Vector_104" opacity="0.39911" d="M32.9254 82.238C33.6793 82.238 34.2905 81.6268 34.2905 80.8728C34.2905 80.1189 33.6793 79.5077 32.9254 79.5077C32.1714 79.5077 31.5602 80.1189 31.5602 80.8728C31.5602 81.6268 32.1714 82.238 32.9254 82.238Z" fill="var(--fill-0, #A3A3A3)"/>
<path id="Vector_105" opacity="0.325256" d="M24.6064 80.9621C25.2924 80.9621 25.8485 80.406 25.8485 79.72C25.8485 79.034 25.2924 78.4779 24.6064 78.4779C23.9204 78.4779 23.3643 79.034 23.3643 79.72C23.3643 80.406 23.9204 80.9621 24.6064 80.9621Z" fill="var(--fill-0, #A3A3A3)"/>
<path id="Vector_106" opacity="0.249681" d="M20.5688 79.5869C21.2315 79.5869 21.7688 79.0496 21.7688 78.3869C21.7688 77.7242 21.2315 77.1869 20.5688 77.1869C19.9061 77.1869 19.3688 77.7242 19.3688 78.3869C19.3688 79.0496 19.9061 79.5869 20.5688 79.5869Z" fill="var(--fill-0, #A3A3A3)"/>
<path id="Vector_107" opacity="0.274744" d="M178.632 80.0478C179.295 80.0478 179.832 79.5106 179.832 78.8478C179.832 78.1851 179.295 77.6478 178.632 77.6478C177.969 77.6478 177.432 78.1851 177.432 78.8478C177.432 79.5106 177.969 80.0478 178.632 80.0478Z" fill="var(--fill-0, #A3A3A3)"/>
<path id="Vector_108" opacity="0.350319" d="M173.034 81.4104C173.744 81.4104 174.318 80.8356 174.318 80.1265C174.318 79.4174 173.744 78.8426 173.034 78.8426C172.325 78.8426 171.751 79.4174 171.751 80.1265C171.751 80.8356 172.325 81.4104 173.034 81.4104Z" fill="var(--fill-0, #A3A3A3)"/>
<path id="Vector_109" opacity="0.422465" d="M163.546 82.6147C164.321 82.6147 164.95 81.9861 164.95 81.2106C164.95 80.4351 164.321 79.8065 163.546 79.8065C162.77 79.8065 162.142 80.4351 162.142 81.2106C162.142 81.9861 162.77 82.6147 163.546 82.6147Z" fill="var(--fill-0, #A3A3A3)"/>
<path id="Vector_110" opacity="0.486266" d="M151.239 83.5856C152.073 83.5856 152.749 82.9094 152.749 82.0752C152.749 81.241 152.073 80.5648 151.239 80.5648C150.405 80.5648 149.729 81.241 149.729 82.0752C149.729 82.9094 150.405 83.5856 151.239 83.5856Z" fill="var(--fill-0, #A3A3A3)"/>
<path id="Vector_111" opacity="0.545746" d="M138.084 101.608C138.973 101.608 139.694 100.887 139.694 99.9983C139.694 99.1093 138.973 98.3887 138.084 98.3887C137.195 98.3887 136.475 99.1093 136.475 99.9983C136.475 100.887 137.195 101.608 138.084 101.608Z" fill="var(--fill-0, #A3A3A3)"/>
<path id="Vector_112" opacity="0.581908" d="M122.154 101.668C123.077 101.668 123.824 100.921 123.824 99.9985C123.824 99.0762 123.077 98.3286 122.154 98.3286C121.232 98.3286 120.485 99.0762 120.485 99.9985C120.485 100.921 121.232 101.668 122.154 101.668Z" fill="var(--fill-0, #A3A3A3)"/>
<path id="Vector_113" opacity="0.598858" d="M105.58 101.696C106.518 101.696 107.278 100.936 107.278 99.9984C107.278 99.0606 106.518 98.3003 105.58 98.3003C104.643 98.3003 103.882 99.0606 103.882 99.9984C103.882 100.936 104.643 101.696 105.58 101.696Z" fill="var(--fill-0, #A3A3A3)"/>
<path id="Vector_114" opacity="0.595442" d="M88.8511 101.69C89.7858 101.69 90.5435 100.933 90.5435 99.9981C90.5435 99.0634 89.7858 98.3057 88.8511 98.3057C87.9164 98.3057 87.1587 99.0634 87.1587 99.9981C87.1587 100.933 87.9164 101.69 88.8511 101.69Z" fill="var(--fill-0, #A3A3A3)"/>
<path id="Vector_115" opacity="0.571892" d="M72.4347 101.652C73.3477 101.652 74.0879 100.911 74.0879 99.9984C74.0879 99.0854 73.3477 98.3452 72.4347 98.3452C71.5217 98.3452 70.7815 99.0854 70.7815 99.9984C70.7815 100.911 71.5217 101.652 72.4347 101.652Z" fill="var(--fill-0, #A3A3A3)"/>
<path id="Vector_116" opacity="0.529813" d="M56.8412 101.581C57.7155 101.581 58.4242 100.872 58.4242 99.9981C58.4242 99.1238 57.7155 98.415 56.8412 98.415C55.9669 98.415 55.2582 99.1238 55.2582 99.9981C55.2582 100.872 55.9669 101.581 56.8412 101.581Z" fill="var(--fill-0, #A3A3A3)"/>
<path id="Vector_117" opacity="0.472073" d="M42.6856 101.485C43.5067 101.485 44.1724 100.82 44.1724 99.9985C44.1724 99.1774 43.5067 98.5117 42.6856 98.5117C41.8645 98.5117 41.1988 99.1774 41.1988 99.9985C41.1988 100.82 41.8645 101.485 42.6856 101.485Z" fill="var(--fill-0, #A3A3A3)"/>
<path id="Vector_118" opacity="0.402606" d="M30.7456 101.369C31.5028 101.369 32.1166 100.756 32.1166 99.9985C32.1166 99.2413 31.5028 98.6274 30.7456 98.6274C29.9884 98.6274 29.3746 99.2413 29.3746 99.9985C29.3746 100.756 29.9884 101.369 30.7456 101.369Z" fill="var(--fill-0, #A3A3A3)"/>
<path id="Vector_119" opacity="0.326147" d="M22.0035 101.242C22.6903 101.242 23.2471 100.685 23.2471 99.9985C23.2471 99.3116 22.6903 98.7549 22.0035 98.7549C21.3167 98.7549 20.76 99.3116 20.76 99.9985C20.76 100.685 21.3167 101.242 22.0035 101.242Z" fill="var(--fill-0, #A3A3A3)"/>
<path id="Vector_120" opacity="0.247906" d="M17.6397 101.198C18.3024 101.198 18.8397 100.661 18.8397 99.9983C18.8397 99.3356 18.3024 98.7983 17.6397 98.7983C16.9769 98.7983 16.4397 99.3356 16.4397 99.9983C16.4397 100.661 16.9769 101.198 17.6397 101.198Z" fill="var(--fill-0, #A3A3A3)"/>
<path id="Vector_121" opacity="0.273853" d="M181.468 101.198C182.13 101.198 182.668 100.661 182.668 99.9983C182.668 99.3356 182.13 98.7983 181.468 98.7983C180.805 98.7983 180.268 99.3356 180.268 99.9983C180.268 100.661 180.805 101.198 181.468 101.198Z" fill="var(--fill-0, #A3A3A3)"/>
<path id="Vector_122" opacity="0.352094" d="M175.504 101.285C176.214 101.285 176.791 100.709 176.791 99.9983C176.791 99.2876 176.214 98.7114 175.504 98.7114C174.793 98.7114 174.217 99.2876 174.217 99.9983C174.217 100.709 174.793 101.285 175.504 101.285Z" fill="var(--fill-0, #A3A3A3)"/>
<path id="Vector_123" opacity="0.426785" d="M165.573 101.41C166.353 101.41 166.985 100.778 166.985 99.9982C166.985 99.2188 166.353 98.5869 165.573 98.5869C164.794 98.5869 164.162 99.2188 164.162 99.9982C164.162 100.778 164.794 101.41 165.573 101.41Z" fill="var(--fill-0, #A3A3A3)"/>
<path id="Vector_124" opacity="0.492836" d="M152.796 101.52C153.637 101.52 154.318 100.839 154.318 99.9984C154.318 99.1582 153.637 98.4771 152.796 98.4771C151.956 98.4771 151.275 99.1582 151.275 99.9984C151.275 100.839 151.956 101.52 152.796 101.52Z" fill="var(--fill-0, #A3A3A3)"/>
<path id="Vector_125" opacity="0.537372" d="M137.001 118.88C137.882 118.88 138.596 118.166 138.596 117.284C138.596 116.403 137.882 115.689 137.001 115.689C136.119 115.689 135.405 116.403 135.405 117.284C135.405 118.166 136.119 118.88 137.001 118.88Z" fill="var(--fill-0, #A3A3A3)"/>
<path id="Vector_126" opacity="0.572302" d="M121.539 118.528C122.453 118.528 123.193 117.788 123.193 116.874C123.193 115.961 122.453 115.22 121.539 115.22C120.626 115.22 119.885 115.961 119.885 116.874C119.885 117.788 120.626 118.528 121.539 118.528Z" fill="var(--fill-0, #A3A3A3)"/>
<path id="Vector_127" opacity="0.588675" d="M105.427 118.37C106.356 118.37 107.108 117.617 107.108 116.689C107.108 115.76 106.356 115.008 105.427 115.008C104.499 115.008 103.746 115.76 103.746 116.689C103.746 117.617 104.499 118.37 105.427 118.37Z" fill="var(--fill-0, #A3A3A3)"/>
<path id="Vector_128" opacity="0.585375" d="M89.158 118.401C90.0834 118.401 90.8336 117.651 90.8336 116.726C90.8336 115.8 90.0834 115.05 89.158 115.05C88.2326 115.05 87.4824 115.8 87.4824 116.726C87.4824 117.651 88.2326 118.401 89.158 118.401Z" fill="var(--fill-0, #A3A3A3)"/>
<path id="Vector_129" opacity="0.562628" d="M73.2053 118.623C74.1097 118.623 74.843 117.89 74.843 116.986C74.843 116.081 74.1097 115.348 73.2053 115.348C72.3008 115.348 71.5676 116.081 71.5676 116.986C71.5676 117.89 72.3008 118.623 73.2053 118.623Z" fill="var(--fill-0, #A3A3A3)"/>
<path id="Vector_130" opacity="0.521983" d="M58.0822 119.041C58.9493 119.041 59.6522 118.338 59.6522 117.471C59.6522 116.604 58.9493 115.901 58.0822 115.901C57.2152 115.901 56.5123 116.604 56.5123 117.471C56.5123 118.338 57.2152 119.041 58.0822 119.041Z" fill="var(--fill-0, #A3A3A3)"/>
<path id="Vector_131" opacity="0.46621" d="M44.4009 119.662C45.2166 119.662 45.8779 119 45.8779 118.185C45.8779 117.369 45.2166 116.708 44.4009 116.708C43.5852 116.708 42.9239 117.369 42.9239 118.185C42.9239 119 43.5852 119.662 44.4009 119.662Z" fill="var(--fill-0, #A3A3A3)"/>
<path id="Vector_132" opacity="0.39911" d="M32.9254 120.489C33.6793 120.489 34.2905 119.878 34.2905 119.124C34.2905 118.37 33.6793 117.758 32.9254 117.758C32.1714 117.758 31.5602 118.37 31.5602 119.124C31.5602 119.878 32.1714 120.489 32.9254 120.489Z" fill="var(--fill-0, #A3A3A3)"/>
<path id="Vector_133" opacity="0.325256" d="M24.6064 121.519C25.2924 121.519 25.8485 120.963 25.8485 120.277C25.8485 119.591 25.2924 119.035 24.6064 119.035C23.9204 119.035 23.3643 119.591 23.3643 120.277C23.3643 120.963 23.9204 121.519 24.6064 121.519Z" fill="var(--fill-0, #A3A3A3)"/>
<path id="Vector_134" opacity="0.249681" d="M20.5688 122.81C21.2315 122.81 21.7688 122.273 21.7688 121.61C21.7688 120.947 21.2315 120.41 20.5688 120.41C19.9061 120.41 19.3688 120.947 19.3688 121.61C19.3688 122.273 19.9061 122.81 20.5688 122.81Z" fill="var(--fill-0, #A3A3A3)"/>
<path id="Vector_135" opacity="0.274744" d="M178.632 122.348C179.295 122.348 179.832 121.811 179.832 121.148C179.832 120.486 179.295 119.948 178.632 119.948C177.969 119.948 177.432 120.486 177.432 121.148C177.432 121.811 177.969 122.348 178.632 122.348Z" fill="var(--fill-0, #A3A3A3)"/>
<path id="Vector_136" opacity="0.350319" d="M173.034 121.154C173.744 121.154 174.318 120.579 174.318 119.87C174.318 119.161 173.744 118.586 173.034 118.586C172.325 118.586 171.751 119.161 171.751 119.87C171.751 120.579 172.325 121.154 173.034 121.154Z" fill="var(--fill-0, #A3A3A3)"/>
<path id="Vector_137" opacity="0.422465" d="M163.546 120.19C164.321 120.19 164.95 119.562 164.95 118.786C164.95 118.011 164.321 117.382 163.546 117.382C162.77 117.382 162.142 118.011 162.142 118.786C162.142 119.562 162.77 120.19 163.546 120.19Z" fill="var(--fill-0, #A3A3A3)"/>
<path id="Vector_138" opacity="0.486266" d="M151.239 119.432C152.073 119.432 152.749 118.755 152.749 117.921C152.749 117.087 152.073 116.411 151.239 116.411C150.405 116.411 149.729 117.087 149.729 117.921C149.729 118.755 150.405 119.432 151.239 119.432Z" fill="var(--fill-0, #A3A3A3)"/>
<path id="Vector_139" opacity="0.512822" d="M133.75 135.527C134.609 135.527 135.305 134.831 135.305 133.972C135.305 133.113 134.609 132.417 133.75 132.417C132.892 132.417 132.196 133.113 132.196 133.972C132.196 134.831 132.892 135.527 133.75 135.527Z" fill="var(--fill-0, #A3A3A3)"/>
<path id="Vector_140" opacity="0.544139" d="M119.688 134.843C120.575 134.843 121.295 134.123 121.295 133.236C121.295 132.348 120.575 131.629 119.688 131.629C118.8 131.629 118.081 132.348 118.081 133.236C118.081 134.123 118.8 134.843 119.688 134.843Z" fill="var(--fill-0, #A3A3A3)"/>
<path id="Vector_141" opacity="0.558819" d="M104.965 134.532C105.866 134.532 106.597 133.802 106.597 132.901C106.597 132 105.866 131.269 104.965 131.269C104.064 131.269 103.334 132 103.334 132.901C103.334 133.802 104.064 134.532 104.965 134.532Z" fill="var(--fill-0, #A3A3A3)"/>
<path id="Vector_142" opacity="0.555861" d="M90.0821 134.594C90.9804 134.594 91.7085 133.866 91.7085 132.968C91.7085 132.069 90.9804 131.341 90.0821 131.341C89.1839 131.341 88.4557 132.069 88.4557 132.968C88.4557 133.866 89.1839 134.594 90.0821 134.594Z" fill="var(--fill-0, #A3A3A3)"/>
<path id="Vector_143" opacity="0.535466" d="M75.5218 135.029C76.4012 135.029 77.1142 134.316 77.1142 133.436C77.1142 132.557 76.4012 131.844 75.5218 131.844C74.6423 131.844 73.9293 132.557 73.9293 133.436C73.9293 134.316 74.6423 135.029 75.5218 135.029Z" fill="var(--fill-0, #A3A3A3)"/>
<path id="Vector_144" opacity="0.499024" d="M61.8006 135.839C62.6466 135.839 63.3323 135.153 63.3323 134.307C63.3323 133.462 62.6466 132.776 61.8006 132.776C60.9547 132.776 60.2689 133.462 60.2689 134.307C60.2689 135.153 60.9547 135.839 61.8006 135.839Z" fill="var(--fill-0, #A3A3A3)"/>
<path id="Vector_145" opacity="0.44902" d="M49.5158 137.027C50.3157 137.027 50.9642 136.379 50.9642 135.579C50.9642 134.779 50.3157 134.131 49.5158 134.131C48.7159 134.131 48.0675 134.779 48.0675 135.579C48.0675 136.379 48.7159 137.027 49.5158 137.027Z" fill="var(--fill-0, #A3A3A3)"/>
<path id="Vector_146" opacity="0.388859" d="M39.3841 138.588C40.1286 138.588 40.7322 137.985 40.7322 137.24C40.7322 136.496 40.1286 135.892 39.3841 135.892C38.6395 135.892 38.036 136.496 38.036 137.24C38.036 137.985 38.6395 138.588 39.3841 138.588Z" fill="var(--fill-0, #A3A3A3)"/>
<path id="Vector_147" opacity="0.322644" d="M32.2593 140.494C32.9429 140.494 33.497 139.94 33.497 139.257C33.497 138.573 32.9429 138.019 32.2593 138.019C31.5757 138.019 31.0216 138.573 31.0216 139.257C31.0216 139.94 31.5757 140.494 32.2593 140.494Z" fill="var(--fill-0, #A3A3A3)"/>
<path id="Vector_148" opacity="0.254885" d="M29.1047 142.76C29.7674 142.76 30.3047 142.223 30.3047 141.56C30.3047 140.897 29.7674 140.36 29.1047 140.36C28.4419 140.36 27.9047 140.897 27.9047 141.56C27.9047 142.223 28.4419 142.76 29.1047 142.76Z" fill="var(--fill-0, #A3A3A3)"/>
<path id="Vector_149" opacity="0.211141" d="M170.307 144.396C170.97 144.396 171.507 143.859 171.507 143.196C171.507 142.534 170.97 141.996 170.307 141.996C169.645 141.996 169.107 142.534 169.107 143.196C169.107 143.859 169.645 144.396 170.307 144.396Z" fill="var(--fill-0, #A3A3A3)"/>
<path id="Vector_150" opacity="0.277356" d="M170.343 141.967C171.006 141.967 171.543 141.429 171.543 140.767C171.543 140.104 171.006 139.567 170.343 139.567C169.68 139.567 169.143 140.104 169.143 140.767C169.143 141.429 169.68 141.967 170.343 141.967Z" fill="var(--fill-0, #A3A3A3)"/>
<path id="Vector_151" opacity="0.345115" d="M165.754 139.824C166.459 139.824 167.03 139.253 167.03 138.548C167.03 137.844 166.459 137.273 165.754 137.273C165.05 137.273 164.479 137.844 164.479 138.548C164.479 139.253 165.05 139.824 165.754 139.824Z" fill="var(--fill-0, #A3A3A3)"/>
<path id="Vector_152" opacity="0.409799" d="M157.524 138.028C158.288 138.028 158.907 137.408 158.907 136.645C158.907 135.881 158.288 135.262 157.524 135.262C156.761 135.262 156.141 135.881 156.141 136.645C156.141 137.408 156.761 138.028 157.524 138.028Z" fill="var(--fill-0, #A3A3A3)"/>
<path id="Vector_153" opacity="0.467001" d="M146.587 136.589C147.403 136.589 148.065 135.927 148.065 135.111C148.065 134.295 147.403 133.633 146.587 133.633C145.77 133.633 145.109 134.295 145.109 135.111C145.109 135.927 145.77 136.589 146.587 136.589Z" fill="var(--fill-0, #A3A3A3)"/>
<path id="Vector_154" opacity="0.473768" d="M128.34 150.9C129.163 150.9 129.83 150.233 129.83 149.411C129.83 148.588 129.163 147.921 128.34 147.921C127.517 147.921 126.85 148.588 126.85 149.411C126.85 150.233 127.517 150.9 128.34 150.9Z" fill="var(--fill-0, #A3A3A3)"/>
<path id="Vector_155" opacity="0.499339" d="M116.59 150.04C117.436 150.04 118.122 149.354 118.122 148.507C118.122 147.661 117.436 146.975 116.59 146.975C115.743 146.975 115.057 147.661 115.057 148.507C115.057 149.354 115.743 150.04 116.59 150.04Z" fill="var(--fill-0, #A3A3A3)"/>
<path id="Vector_156" opacity="0.511325" d="M104.19 149.648C105.048 149.648 105.742 148.953 105.742 148.096C105.742 147.239 105.048 146.544 104.19 146.544C103.333 146.544 102.638 147.239 102.638 148.096C102.638 148.953 103.333 149.648 104.19 149.648Z" fill="var(--fill-0, #A3A3A3)"/>
<path id="Vector_157" opacity="0.508909" d="M91.632 149.726C92.487 149.726 93.1801 149.033 93.1801 148.178C93.1801 147.323 92.487 146.63 91.632 146.63C90.7769 146.63 90.0838 147.323 90.0838 148.178C90.0838 149.033 90.7769 149.726 91.632 149.726Z" fill="var(--fill-0, #A3A3A3)"/>
<path id="Vector_158" opacity="0.492257" d="M79.393 150.275C80.2328 150.275 80.9135 149.594 80.9135 148.754C80.9135 147.915 80.2328 147.234 79.393 147.234C78.5533 147.234 77.8726 147.915 77.8726 148.754C77.8726 149.594 78.5533 150.275 79.393 150.275Z" fill="var(--fill-0, #A3A3A3)"/>
<path id="Vector_159" opacity="0.462503" d="M67.974 151.29C68.7863 151.29 69.4449 150.631 69.4449 149.819C69.4449 149.007 68.7863 148.348 67.974 148.348C67.1617 148.348 66.5032 149.007 66.5032 149.819C66.5032 150.631 67.1617 151.29 67.974 151.29Z" fill="var(--fill-0, #A3A3A3)"/>
<path id="Vector_160" opacity="0.421674" d="M57.9267 152.761C58.7015 152.761 59.3295 152.133 59.3295 151.358C59.3295 150.584 58.7015 149.956 57.9267 149.956C57.152 149.956 56.5239 150.584 56.5239 151.358C56.5239 152.133 57.152 152.761 57.9267 152.761Z" fill="var(--fill-0, #A3A3A3)"/>
<path id="Vector_161" opacity="0.372553" d="M49.8728 154.661C50.6023 154.661 51.1937 154.07 51.1937 153.34C51.1937 152.611 50.6023 152.02 49.8728 152.02C49.1433 152.02 48.5519 152.611 48.5519 153.34C48.5519 154.07 49.1433 154.661 49.8728 154.661Z" fill="var(--fill-0, #A3A3A3)"/>
<path id="Vector_162" opacity="0.318489" d="M44.5011 156.938C45.1808 156.938 45.7319 156.387 45.7319 155.707C45.7319 155.028 45.1808 154.477 44.5011 154.477C43.8213 154.477 43.2702 155.028 43.2702 155.707C43.2702 156.387 43.8213 156.938 44.5011 156.938Z" fill="var(--fill-0, #A3A3A3)"/>
<path id="Vector_163" opacity="0.263164" d="M42.5259 159.557C43.1886 159.557 43.7259 159.02 43.7259 158.357C43.7259 157.694 43.1886 157.157 42.5259 157.157C41.8631 157.157 41.3259 157.694 41.3259 158.357C41.3259 159.02 41.8631 159.557 42.5259 159.557Z" fill="var(--fill-0, #A3A3A3)"/>
<path id="Vector_164" opacity="0.210349" d="M44.5913 162.333C45.254 162.333 45.7913 161.796 45.7913 161.133C45.7913 160.47 45.254 159.933 44.5913 159.933C43.9285 159.933 43.3913 160.47 43.3913 161.133C43.3913 161.796 43.9285 162.333 44.5913 162.333Z" fill="var(--fill-0, #A3A3A3)"/>
<path id="Vector_165" opacity="0.227447" d="M156.575 161.406C157.238 161.406 157.775 160.869 157.775 160.206C157.775 159.544 157.238 159.006 156.575 159.006C155.912 159.006 155.375 159.544 155.375 160.206C155.375 160.869 155.912 161.406 156.575 161.406Z" fill="var(--fill-0, #A3A3A3)"/>
<path id="Vector_166" opacity="0.281511" d="M157.232 158.651C157.895 158.651 158.432 158.114 158.432 157.451C158.432 156.788 157.895 156.251 157.232 156.251C156.57 156.251 156.032 156.788 156.032 157.451C156.032 158.114 156.57 158.651 157.232 158.651Z" fill="var(--fill-0, #A3A3A3)"/>
<path id="Vector_167" opacity="0.336836" d="M154.047 156.142C154.744 156.142 155.309 155.578 155.309 154.881C155.309 154.184 154.744 153.62 154.047 153.62C153.351 153.62 152.786 154.184 152.786 154.881C152.786 155.578 153.351 156.142 154.047 156.142Z" fill="var(--fill-0, #A3A3A3)"/>
<path id="Vector_168" opacity="0.389651" d="M147.702 153.983C148.447 153.983 149.051 153.379 149.051 152.634C149.051 151.888 148.447 151.284 147.702 151.284C146.957 151.284 146.353 151.888 146.353 152.634C146.353 153.379 146.957 153.983 147.702 153.983Z" fill="var(--fill-0, #A3A3A3)"/>
<path id="Vector_169" opacity="0.436356" d="M138.91 152.221C139.698 152.221 140.337 151.582 140.337 150.794C140.337 150.006 139.698 149.367 138.91 149.367C138.122 149.367 137.483 150.006 137.483 150.794C137.483 151.582 138.122 152.221 138.91 152.221Z" fill="var(--fill-0, #A3A3A3)"/>
<path id="Vector_170" opacity="0.422873" d="M120.81 164.249C121.586 164.249 122.215 163.62 122.215 162.844C122.215 162.068 121.586 161.439 120.81 161.439C120.034 161.439 119.405 162.068 119.405 162.844C119.405 163.62 120.034 164.249 120.81 164.249Z" fill="var(--fill-0, #A3A3A3)"/>
<path id="Vector_171" opacity="0.440954" d="M112.241 163.432C113.033 163.432 113.676 162.789 113.676 161.997C113.676 161.204 113.033 160.562 112.241 160.562C111.448 160.562 110.806 161.204 110.806 161.997C110.806 162.789 111.448 163.432 112.241 163.432Z" fill="var(--fill-0, #A3A3A3)"/>
<path id="Vector_172" opacity="0.449429" d="M103.098 163.056C103.899 163.056 104.547 162.407 104.547 161.607C104.547 160.807 103.899 160.158 103.098 160.158C102.298 160.158 101.649 160.807 101.649 161.607C101.649 162.407 102.298 163.056 103.098 163.056Z" fill="var(--fill-0, #A3A3A3)"/>
<path id="Vector_173" opacity="0.447721" d="M93.8138 163.132C94.6125 163.132 95.26 162.484 95.26 161.685C95.26 160.887 94.6125 160.239 93.8138 160.239C93.0151 160.239 92.3676 160.887 92.3676 161.685C92.3676 162.484 93.0151 163.132 93.8138 163.132Z" fill="var(--fill-0, #A3A3A3)"/>
<path id="Vector_174" opacity="0.435946" d="M84.814 163.656C85.6019 163.656 86.2406 163.017 86.2406 162.229C86.2406 161.441 85.6019 160.803 84.814 160.803C84.0262 160.803 83.3875 161.441 83.3875 162.229C83.3875 163.017 84.0262 163.656 84.814 163.656Z" fill="var(--fill-0, #A3A3A3)"/>
<path id="Vector_175" opacity="0.414907" d="M76.5341 164.616C77.3026 164.616 77.9256 163.993 77.9256 163.225C77.9256 162.456 77.3026 161.833 76.5341 161.833C75.7656 161.833 75.1426 162.456 75.1426 163.225C75.1426 163.993 75.7656 164.616 76.5341 164.616Z" fill="var(--fill-0, #A3A3A3)"/>
<path id="Vector_176" opacity="0.386036" d="M69.4248 165.987C70.1667 165.987 70.7682 165.386 70.7682 164.644C70.7682 163.902 70.1667 163.301 69.4248 163.301C68.6829 163.301 68.0814 163.902 68.0814 164.644C68.0814 165.386 68.6829 165.987 69.4248 165.987Z" fill="var(--fill-0, #A3A3A3)"/>
<path id="Vector_177" opacity="0.351303" d="M63.9523 167.724C64.6622 167.724 65.2378 167.149 65.2378 166.439C65.2378 165.729 64.6622 165.153 63.9523 165.153C63.2423 165.153 62.6668 165.729 62.6668 166.439C62.6668 167.149 63.2423 167.724 63.9523 167.724Z" fill="var(--fill-0, #A3A3A3)"/>
<path id="Vector_178" opacity="0.313073" d="M60.5806 169.754C61.2554 169.754 61.8024 169.207 61.8024 168.533C61.8024 167.858 61.2554 167.311 60.5806 167.311C59.9059 167.311 59.3588 167.858 59.3588 168.533C59.3588 169.207 59.9059 169.754 60.5806 169.754Z" fill="var(--fill-0, #A3A3A3)"/>
<path id="Vector_179" opacity="0.273953" d="M59.7327 172.016C60.3954 172.016 60.9327 171.479 60.9327 170.816C60.9327 170.154 60.3954 169.616 59.7327 169.616C59.0699 169.616 58.5327 170.154 58.5327 170.816C58.5327 171.479 59.0699 172.016 59.7327 172.016Z" fill="var(--fill-0, #A3A3A3)"/>
<path id="Vector_180" opacity="0.236607" d="M61.7247 174.343C62.3875 174.343 62.9247 173.806 62.9247 173.143C62.9247 172.48 62.3875 171.943 61.7247 171.943C61.062 171.943 60.5247 172.48 60.5247 173.143C60.5247 173.806 61.062 174.343 61.7247 174.343Z" fill="var(--fill-0, #A3A3A3)"/>
<path id="Vector_181" opacity="0.213964" d="M135.294 175.83C135.957 175.83 136.494 175.293 136.494 174.63C136.494 173.967 135.957 173.43 135.294 173.43C134.632 173.43 134.094 173.967 134.094 174.63C134.094 175.293 134.632 175.83 135.294 175.83Z" fill="var(--fill-0, #A3A3A3)"/>
<path id="Vector_182" opacity="0.248697" d="M139.264 173.574C139.927 173.574 140.464 173.036 140.464 172.374C140.464 171.711 139.927 171.174 139.264 171.174C138.601 171.174 138.064 171.711 138.064 172.374C138.064 173.036 138.601 173.574 139.264 173.574Z" fill="var(--fill-0, #A3A3A3)"/>
<path id="Vector_183" opacity="0.286927" d="M140.284 171.242C140.947 171.242 141.484 170.705 141.484 170.042C141.484 169.379 140.947 168.842 140.284 168.842C139.622 168.842 139.084 169.379 139.084 170.042C139.084 170.705 139.622 171.242 140.284 171.242Z" fill="var(--fill-0, #A3A3A3)"/>
<path id="Vector_184" opacity="0.326047" d="M138.553 169.051C139.24 169.051 139.796 168.494 139.796 167.807C139.796 167.12 139.24 166.564 138.553 166.564C137.866 166.564 137.31 167.12 137.31 167.807C137.31 168.494 137.866 169.051 138.553 169.051Z" fill="var(--fill-0, #A3A3A3)"/>
<path id="Vector_185" opacity="0.363393" d="M134.431 167.109C135.152 167.109 135.737 166.524 135.737 165.803C135.737 165.082 135.152 164.497 134.431 164.497C133.71 164.497 133.125 165.082 133.125 165.803C133.125 166.524 133.71 167.109 134.431 167.109Z" fill="var(--fill-0, #A3A3A3)"/>
<path id="Vector_186" opacity="0.396418" d="M128.361 165.487C129.112 165.487 129.721 164.878 129.721 164.127C129.721 163.375 129.112 162.766 128.361 162.766C127.609 162.766 127 163.375 127 164.127C127 164.878 127.609 165.487 128.361 165.487Z" fill="var(--fill-0, #A3A3A3)"/>
<path id="Vector_187" opacity="0.363604" d="M111.277 174.687C111.998 174.687 112.583 174.103 112.583 173.381C112.583 172.66 111.998 172.075 111.277 172.075C110.555 172.075 109.971 172.66 109.971 173.381C109.971 174.103 110.555 174.687 111.277 174.687Z" fill="var(--fill-0, #A3A3A3)"/>
<path id="Vector_188" opacity="0.372963" d="M106.674 174.163C107.404 174.163 107.996 173.572 107.996 172.842C107.996 172.112 107.404 171.52 106.674 171.52C105.944 171.52 105.352 172.112 105.352 172.842C105.352 173.572 105.944 174.163 106.674 174.163Z" fill="var(--fill-0, #A3A3A3)"/>
<path id="Vector_189" opacity="0.37735" d="M101.694 173.921C102.428 173.921 103.022 173.326 103.022 172.592C103.022 171.858 102.428 171.263 101.694 171.263C100.96 171.263 100.365 171.858 100.365 172.592C100.365 173.326 100.96 173.921 101.694 173.921Z" fill="var(--fill-0, #A3A3A3)"/>
<path id="Vector_190" opacity="0.376466" d="M96.6183 173.97C97.3514 173.97 97.9457 173.375 97.9457 172.642C97.9457 171.909 97.3514 171.315 96.6183 171.315C95.8852 171.315 95.2908 171.909 95.2908 172.642C95.2908 173.375 95.8852 173.97 96.6183 173.97Z" fill="var(--fill-0, #A3A3A3)"/>
<path id="Vector_191" opacity="0.370371" d="M91.7327 174.308C92.4602 174.308 93.0499 173.718 93.0499 172.991C93.0499 172.263 92.4602 171.674 91.7327 171.674C91.0051 171.674 90.4154 172.263 90.4154 172.991C90.4154 173.718 91.0051 174.308 91.7327 174.308Z" fill="var(--fill-0, #A3A3A3)"/>
<path id="Vector_192" opacity="0.35948" d="M87.3178 174.921C88.0353 174.921 88.6169 174.339 88.6169 173.622C88.6169 172.904 88.0353 172.322 87.3178 172.322C86.6003 172.322 86.0187 172.904 86.0187 173.622C86.0187 174.339 86.6003 174.921 87.3178 174.921Z" fill="var(--fill-0, #A3A3A3)"/>
<path id="Vector_193" opacity="0.344536" d="M83.6446 175.78C84.3483 175.78 84.9188 175.21 84.9188 174.506C84.9188 173.802 84.3483 173.232 83.6446 173.232C82.9408 173.232 82.3703 173.802 82.3703 174.506C82.3703 175.21 82.9408 175.78 83.6446 175.78Z" fill="var(--fill-0, #A3A3A3)"/>
<path id="Vector_194" opacity="0.326556" d="M80.963 176.842C81.6502 176.842 82.2073 176.285 82.2073 175.598C82.2073 174.911 81.6502 174.354 80.963 174.354C80.2758 174.354 79.7188 174.911 79.7188 175.598C79.7188 176.285 80.2758 176.842 80.963 176.842Z" fill="var(--fill-0, #A3A3A3)"/>
<path id="Vector_195" opacity="0.306767" d="M79.4876 178.049C80.1565 178.049 80.6989 177.507 80.6989 176.838C80.6989 176.169 80.1565 175.627 79.4876 175.627C78.8186 175.627 78.2763 176.169 78.2763 176.838C78.2763 177.507 78.8186 178.049 79.4876 178.049Z" fill="var(--fill-0, #A3A3A3)"/>
<path id="Vector_196" opacity="0.286517" d="M79.376 179.349C80.0387 179.349 80.576 178.812 80.576 178.149C80.576 177.487 80.0387 176.949 79.376 176.949C78.7132 176.949 78.176 177.487 78.176 178.149C78.176 178.812 78.7132 179.349 79.376 179.349Z" fill="var(--fill-0, #A3A3A3)"/>
<path id="Vector_197" opacity="0.267186" d="M80.7055 180.643C81.3682 180.643 81.9055 180.106 81.9055 179.443C81.9055 178.781 81.3682 178.243 80.7055 178.243C80.0427 178.243 79.5055 178.781 79.5055 179.443C79.5055 180.106 80.0427 180.643 80.7055 180.643Z" fill="var(--fill-0, #A3A3A3)"/>
<path id="Vector_198" opacity="0.25009" d="M83.4489 181.824C84.1116 181.824 84.6489 181.287 84.6489 180.624C84.6489 179.962 84.1116 179.424 83.4489 179.424C82.7861 179.424 82.2489 179.962 82.2489 180.624C82.2489 181.287 82.7861 181.824 83.4489 181.824Z" fill="var(--fill-0, #A3A3A3)"/>
<path id="Vector_199" opacity="0.236396" d="M87.4576 182.796C88.1203 182.796 88.6576 182.259 88.6576 181.596C88.6576 180.933 88.1203 180.396 87.4576 180.396C86.7949 180.396 86.2576 180.933 86.2576 181.596C86.2576 182.259 86.7949 182.796 87.4576 182.796Z" fill="var(--fill-0, #A3A3A3)"/>
<path id="Vector_200" opacity="0.227037" d="M92.4582 183.474C93.121 183.474 93.6582 182.936 93.6582 182.274C93.6582 181.611 93.121 181.074 92.4582 181.074C91.7955 181.074 91.2582 181.611 91.2582 182.274C91.2582 182.936 91.7955 183.474 92.4582 183.474Z" fill="var(--fill-0, #A3A3A3)"/>
<path id="Vector_201" opacity="0.22265" d="M98.0694 183.795C98.7321 183.795 99.2694 183.258 99.2694 182.595C99.2694 181.932 98.7321 181.395 98.0694 181.395C97.4066 181.395 96.8694 181.932 96.8694 182.595C96.8694 183.258 97.4066 183.795 98.0694 183.795Z" fill="var(--fill-0, #A3A3A3)"/>
<path id="Vector_202" opacity="0.223534" d="M103.838 183.73C104.501 183.73 105.038 183.193 105.038 182.53C105.038 181.867 104.501 181.33 103.838 181.33C103.176 181.33 102.638 181.867 102.638 182.53C102.638 183.193 103.176 183.73 103.838 183.73Z" fill="var(--fill-0, #A3A3A3)"/>
<path id="Vector_203" opacity="0.229629" d="M109.294 183.285C109.957 183.285 110.494 182.748 110.494 182.085C110.494 181.422 109.957 180.885 109.294 180.885C108.631 180.885 108.094 181.422 108.094 182.085C108.094 182.748 108.631 183.285 109.294 183.285Z" fill="var(--fill-0, #A3A3A3)"/>
<path id="Vector_204" opacity="0.24052" d="M114.001 182.501C114.664 182.501 115.201 181.964 115.201 181.301C115.201 180.638 114.664 180.101 114.001 180.101C113.339 180.101 112.801 180.638 112.801 181.301C112.801 181.964 113.339 182.501 114.001 182.501Z" fill="var(--fill-0, #A3A3A3)"/>
<path id="Vector_205" opacity="0.255464" d="M117.613 181.449C118.275 181.449 118.813 180.912 118.813 180.249C118.813 179.587 118.275 179.049 117.613 179.049C116.95 179.049 116.413 179.587 116.413 180.249C116.413 180.912 116.95 181.449 117.613 181.449Z" fill="var(--fill-0, #A3A3A3)"/>
<path id="Vector_206" opacity="0.273444" d="M119.895 180.22C120.558 180.22 121.095 179.683 121.095 179.02C121.095 178.357 120.558 177.82 119.895 177.82C119.232 177.82 118.695 178.357 118.695 179.02C118.695 179.683 119.232 180.22 119.895 180.22Z" fill="var(--fill-0, #A3A3A3)"/>
<path id="Vector_207" opacity="0.293233" d="M120.742 178.909C121.404 178.909 121.942 178.372 121.942 177.709C121.942 177.047 121.404 176.509 120.742 176.509C120.079 176.509 119.542 177.047 119.542 177.709C119.542 178.372 120.079 178.909 120.742 178.909Z" fill="var(--fill-0, #A3A3A3)"/>
<path id="Vector_208" opacity="0.313483" d="M120.162 177.635C120.838 177.635 121.385 177.088 121.385 176.413C121.385 175.737 120.838 175.19 120.162 175.19C119.487 175.19 118.94 175.737 118.94 176.413C118.94 177.088 119.487 177.635 120.162 177.635Z" fill="var(--fill-0, #A3A3A3)"/>
<path id="Vector_209" opacity="0.332814" d="M118.264 176.469C118.957 176.469 119.519 175.907 119.519 175.214C119.519 174.521 118.957 173.96 118.264 173.96C117.571 173.96 117.009 174.521 117.009 175.214C117.009 175.907 117.571 176.469 118.264 176.469Z" fill="var(--fill-0, #A3A3A3)"/>
<path id="Vector_210" opacity="0.34991" d="M115.226 175.468C115.935 175.468 116.509 174.894 116.509 174.185C116.509 173.477 115.935 172.902 115.226 172.902C114.517 172.902 113.943 173.477 113.943 174.185C113.943 174.894 114.517 175.468 115.226 175.468Z" fill="var(--fill-0, #A3A3A3)"/>
<path id="Vector_211" opacity="0.979821" d="M103.871 72.4988C105.251 72.4988 106.371 71.3795 106.371 69.9988C106.371 68.6181 105.251 67.4988 103.871 67.4988C102.49 67.4988 101.371 68.6181 101.371 69.9988C101.371 71.3795 102.49 72.4988 103.871 72.4988Z" fill="var(--fill-0, #F97316)"/>
<path id="Vector_212" opacity="0.620179" d="M60.6572 122.498C62.0379 122.498 63.1572 121.378 63.1572 119.998C63.1572 118.617 62.0379 117.498 60.6572 117.498C59.2765 117.498 58.1572 118.617 58.1572 119.998C58.1572 121.378 59.2765 122.498 60.6572 122.498Z" fill="var(--fill-0, #F97316)"/>
</g>
</svg>
