<svg width="20" height="20" viewBox="0 0 20 20" fill="none" xmlns="http://www.w3.org/2000/svg">
<g clip-path="url(#clip0_120_278)">
<path d="M19.9904 10.0557C19.9904 4.5359 15.515 0.0605469 9.9952 0.0605469C4.47535 0.0605469 0 4.5359 0 10.0557C0 15.045 3.65491 19.1797 8.43345 19.9293V12.9452H5.8955V10.0549H8.43345V7.8543C8.43345 5.34967 9.92607 3.96534 12.2091 3.96534C13.3019 3.96534 14.4464 4.16108 14.4464 4.16108V6.62073H13.1853C11.9434 6.62073 11.5561 7.39119 11.5561 8.18165V10.0557H14.3281L13.885 12.946H11.5561V19.9302C16.3355 19.1797 19.9904 15.0442 19.9904 10.0557Z" fill="white"/>
</g>
<defs>
<clipPath id="clip0_120_278">
<rect width="19.9904" height="19.9904" fill="white"/>
</clipPath>
</defs>
</svg>
