<svg preserveAspectRatio="none" width="100%" height="100%" overflow="visible" style="display: block;" viewBox="0 0 27.994 27.994" fill="none" xmlns="http://www.w3.org/2000/svg">
<g id="Icon">
<path id="Vector" opacity="0.3" d="M13.997 25.6612C20.4389 25.6612 25.6612 20.4389 25.6612 13.997C25.6612 7.55506 20.4389 2.33283 13.997 2.33283C7.55506 2.33283 2.33283 7.55506 2.33283 13.997C2.33283 20.4389 7.55506 25.6612 13.997 25.6612Z" fill="var(--fill-0, #0FD46B)"/>
<path id="Vector_2" d="M13.997 2.33283C7.55838 2.33283 2.33283 7.55838 2.33283 13.997C2.33283 20.4356 7.55838 25.6612 13.997 25.6612C20.4356 25.6612 25.6612 20.4356 25.6612 13.997C25.6612 7.55838 20.4356 2.33283 13.997 2.33283ZM12.8306 19.8291L6.9985 13.997L8.64315 12.3524L12.8306 16.5281L21.6837 7.67502L23.3283 9.33133L12.8306 19.8291Z" fill="var(--fill-0, #0FD46B)"/>
</g>
</svg>
