<svg preserveAspectRatio="none" width="100%" height="100%" overflow="visible" style="display: block;" viewBox="0 0 27.994 27.994" fill="none" xmlns="http://www.w3.org/2000/svg">
<g id="Icon">
<path id="Vector" opacity="0.3" d="M13.997 25.6612C20.4389 25.6612 25.6612 20.4389 25.6612 13.997C25.6612 7.55506 20.4389 2.33283 13.997 2.33283C7.55506 2.33283 2.33283 7.55506 2.33283 13.997C2.33283 20.4389 7.55506 25.6612 13.997 25.6612Z" fill="var(--fill-0, #9810FA)"/>
<path id="Vector_2" d="M13.997 2.33283C7.55838 2.33283 2.33283 7.55838 2.33283 13.997C2.33283 20.4356 7.55838 25.6612 13.997 25.6612C20.4356 25.6612 25.6612 20.4356 25.6612 13.997C25.6612 7.55838 20.4356 2.33283 13.997 2.33283ZM13.997 5.83208C15.9333 5.83208 17.4962 7.39508 17.4962 9.33133C17.4962 11.2676 15.9333 12.8306 13.997 12.8306C12.0607 12.8306 10.4978 11.2676 10.4978 9.33133C10.4978 7.39508 12.0607 5.83208 13.997 5.83208ZM13.997 22.3952C11.081 22.3952 8.50318 20.9022 6.9985 18.6393C7.03349 16.3182 11.6642 15.0468 13.997 15.0468C16.3182 15.0468 20.9605 16.3182 20.9955 18.6393C19.4908 20.9022 16.913 22.3952 13.997 22.3952Z" fill="var(--fill-0, #9810FA)"/>
</g>
</svg>
