<svg width="20" height="20" viewBox="0 0 20 20" fill="none" xmlns="http://www.w3.org/2000/svg">
<g clip-path="url(#clip0_120_287)">
<path d="M9.9952 0C7.27984 0 6.94083 0.012494 5.87468 0.0599712C4.81019 0.109947 4.08554 0.277367 3.44834 0.524748C2.79116 0.779626 2.23309 1.12196 1.67753 1.67753C1.12196 2.23309 0.778793 2.79033 0.524748 3.44834C0.277367 4.08554 0.109114 4.81019 0.0599712 5.87468C0.0099952 6.94083 0 7.27984 0 9.9952C0 12.7106 0.012494 13.0496 0.0599712 14.1157C0.109947 15.1794 0.277367 15.9049 0.524748 16.5421C0.779626 17.1984 1.12196 17.7573 1.67753 18.3129C2.23309 18.8676 2.79033 19.2116 3.44834 19.4657C4.08637 19.7122 4.81102 19.8813 5.87468 19.9304C6.94083 19.9804 7.27984 19.9904 9.9952 19.9904C12.7106 19.9904 13.0496 19.9779 14.1157 19.9304C15.1794 19.8805 15.9049 19.7122 16.5421 19.4657C17.1984 19.2108 17.7573 18.8676 18.3129 18.3129C18.8676 17.7573 19.2116 17.2009 19.4657 16.5421C19.7122 15.9049 19.8813 15.1794 19.9304 14.1157C19.9804 13.0496 19.9904 12.7106 19.9904 9.9952C19.9904 7.27984 19.9779 6.94083 19.9304 5.87468C19.8805 4.81102 19.7122 4.0847 19.4657 3.44834C19.2108 2.79116 18.8676 2.23309 18.3129 1.67753C17.7573 1.12196 17.2009 0.778793 16.5421 0.524748C15.9049 0.277367 15.1794 0.109114 14.1157 0.0599712C13.0496 0.0099952 12.7106 0 9.9952 0ZM9.9952 1.79914C12.6631 1.79914 12.9813 1.81246 14.0349 1.85827C15.0095 1.90409 15.5384 2.06567 15.8899 2.20394C16.358 2.38469 16.6895 2.60125 17.041 2.95025C17.39 3.30008 17.6065 3.63242 17.7873 4.10053C17.9239 4.45203 18.0871 4.98094 18.1313 5.95547C18.1788 7.00997 18.1896 7.32648 18.1896 9.9952C18.1896 12.6639 18.1771 12.9813 18.128 14.0349C18.0772 15.0095 17.9147 15.5384 17.7773 15.8899C17.5907 16.358 17.3783 16.6895 17.0285 17.041C16.6795 17.39 16.3421 17.6065 15.879 17.7873C15.5292 17.9239 14.992 18.0871 14.0174 18.1313C12.9563 18.1788 12.6439 18.1896 9.97021 18.1896C7.29566 18.1896 6.98331 18.1771 5.92299 18.128C4.94762 18.0772 4.41038 17.9147 4.06055 17.7773C3.58661 17.5907 3.26093 17.3783 2.91193 17.0285C2.56127 16.6795 2.33721 16.3421 2.16229 15.879C2.02486 15.5292 1.86327 14.992 1.81246 14.0174C1.77498 12.9679 1.76165 12.6439 1.76165 9.98271C1.76165 7.32065 1.77498 6.99581 1.81246 5.93382C1.86327 4.95928 2.02486 4.42288 2.16229 4.07304C2.33721 3.59827 2.56127 3.27343 2.91193 2.92276C3.26093 2.57376 3.58661 2.34887 4.06055 2.17479C4.41038 2.03652 4.93596 1.8741 5.91049 1.82412C6.97248 1.78664 7.28483 1.77415 9.95772 1.77415L9.9952 1.79914ZM9.9952 4.86266C7.15906 4.86266 4.86266 7.16156 4.86266 9.9952C4.86266 12.8313 7.16156 15.1277 9.9952 15.1277C12.8313 15.1277 15.1277 12.8288 15.1277 9.9952C15.1277 7.15906 12.8288 4.86266 9.9952 4.86266ZM9.9952 13.3269C8.15442 13.3269 6.66347 11.836 6.66347 9.9952C6.66347 8.15442 8.15442 6.66347 9.9952 6.66347C11.836 6.66347 13.3269 8.15442 13.3269 9.9952C13.3269 11.836 11.836 13.3269 9.9952 13.3269ZM16.5304 4.66026C16.5304 5.32244 15.9923 5.85969 15.331 5.85969C14.6688 5.85969 14.1315 5.32161 14.1315 4.66026C14.1315 3.99891 14.6696 3.46167 15.331 3.46167C15.9915 3.46084 16.5304 3.99891 16.5304 4.66026Z" fill="white"/>
</g>
<defs>
<clipPath id="clip0_120_287">
<rect width="19.9904" height="19.9904" fill="white"/>
</clipPath>
</defs>
</svg>
