<svg width="20" height="20" viewBox="0 0 20 20" fill="none" xmlns="http://www.w3.org/2000/svg">
<g clip-path="url(#clip0_120_281)">
<path d="M17.031 17.0352H14.0707V12.3965C14.0707 11.2904 14.0483 9.86693 12.5281 9.86693C10.9847 9.86693 10.749 11.0705 10.749 12.3149V17.0352H7.78876V7.4964H10.6324V8.79661H10.6707C11.068 8.04697 12.0342 7.25568 13.4777 7.25568C16.4771 7.25568 17.0318 9.22973 17.0318 11.7993L17.031 17.0352ZM4.44536 6.19119C3.49249 6.19119 2.72702 5.4199 2.72702 4.47119C2.72702 3.52331 3.49332 2.75284 4.44536 2.75284C5.39491 2.75284 6.16454 3.52331 6.16454 4.47119C6.16454 5.4199 5.39408 6.19119 4.44536 6.19119ZM5.92965 17.0352H2.96108V7.4964H5.92965V17.0352ZM18.5119 0H1.47512C0.659683 0 0 0.64469 0 1.44014V18.5503C0 19.3465 0.659683 19.9904 1.47512 19.9904H18.5094C19.3241 19.9904 19.9904 19.3465 19.9904 18.5503V1.44014C19.9904 0.64469 19.3241 0 18.5094 0H18.5119Z" fill="white"/>
</g>
<defs>
<clipPath id="clip0_120_281">
<rect width="19.9904" height="19.9904" fill="white"/>
</clipPath>
</defs>
</svg>
