<svg preserveAspectRatio="none" width="100%" height="100%" overflow="visible" style="display: block;" viewBox="0 0 20 20" fill="none" xmlns="http://www.w3.org/2000/svg">
<g id="Icon">
<path id="Vector" opacity="0.3" d="M15.8333 2.5H4.16667C3.24619 2.5 2.5 3.24619 2.5 4.16667V15.8333C2.5 16.7538 3.24619 17.5 4.16667 17.5H15.8333C16.7538 17.5 17.5 16.7538 17.5 15.8333V4.16667C17.5 3.24619 16.7538 2.5 15.8333 2.5Z" fill="var(--fill-0, #0FD46B)"/>
<path id="Vector_2" d="M5.83333 5.83333H7.5V7.5H5.83333V5.83333ZM9.16667 5.83333H10.8333V7.5H9.16667V5.83333ZM12.5 5.83333H14.1667V7.5H12.5V5.83333ZM5.83333 9.16667H7.5V10.8333H5.83333V9.16667ZM9.16667 9.16667H10.8333V10.8333H9.16667V9.16667ZM12.5 9.16667H14.1667V10.8333H12.5V9.16667ZM5.83333 12.5H7.5V15.8333H5.83333V12.5ZM9.16667 12.5H10.8333V15.8333H9.16667V12.5Z" fill="var(--fill-0, #0FD46B)"/>
</g>
</svg>
