<svg preserveAspectRatio="none" width="100%" height="100%" overflow="visible" style="display: block;" viewBox="0 0 20 20" fill="none" xmlns="http://www.w3.org/2000/svg">
<g id="Icon">
<path id="Vector" opacity="0.3" d="M10 18.3333C14.6024 18.3333 18.3333 14.6024 18.3333 10C18.3333 5.39763 14.6024 1.66667 10 1.66667C5.39763 1.66667 1.66667 5.39763 1.66667 10C1.66667 14.6024 5.39763 18.3333 10 18.3333Z" fill="var(--fill-0, black)"/>
<path id="Vector_2" d="M10 1.66667C5.4 1.66667 1.66667 5.4 1.66667 10C1.66667 14.6 5.4 18.3333 10 18.3333C14.6 18.3333 18.3333 14.6 18.3333 10C18.3333 5.4 14.6 1.66667 10 1.66667ZM10 4.16667C11.3833 4.16667 12.5 5.28333 12.5 6.66667C12.5 8.05 11.3833 9.16667 10 9.16667C8.61667 9.16667 7.5 8.05 7.5 6.66667C7.5 5.28333 8.61667 4.16667 10 4.16667ZM10 16C7.91667 16 6.075 14.9333 5 13.3167C5.025 11.6583 8.33333 10.75 10 10.75C11.6583 10.75 14.975 11.6583 15 13.3167C13.925 14.9333 12.0833 16 10 16Z" fill="var(--fill-0, black)"/>
</g>
</svg>
