<svg preserveAspectRatio="none" width="100%" height="100%" overflow="visible" style="display: block;" viewBox="0 0 13.997 13.997" fill="none" xmlns="http://www.w3.org/2000/svg">
<g id="Icon">
<path id="Vector" d="M4.66567 4.08246V1.74963M9.33133 4.08246V1.74963M4.08246 6.41529H9.91454M2.91604 12.2474H11.081C11.3903 12.2474 11.687 12.1245 11.9057 11.9057C12.1245 11.687 12.2474 11.3903 12.2474 11.081V4.08246C12.2474 3.77311 12.1245 3.47642 11.9057 3.25768C11.687 3.03893 11.3903 2.91604 11.081 2.91604H2.91604C2.60669 2.91604 2.31001 3.03893 2.09126 3.25768C1.87252 3.47642 1.74963 3.77311 1.74963 4.08246V11.081C1.74963 11.3903 1.87252 11.687 2.09126 11.9057C2.31001 12.1245 2.60669 12.2474 2.91604 12.2474Z" stroke="var(--stroke-0, #A1A1A1)" stroke-width="1.16642" stroke-linecap="round" stroke-linejoin="round"/>
</g>
</svg>
