<svg preserveAspectRatio="none" width="100%" height="100%" overflow="visible" style="display: block;" viewBox="0 0 15.9887 15.9887" fill="none" xmlns="http://www.w3.org/2000/svg">
<g id="Icon">
<path id="Vector" d="M6.87847 2.87597C7.16227 1.70613 8.82643 1.70613 9.11023 2.87597C9.15281 3.05171 9.23629 3.21491 9.35386 3.3523C9.47144 3.48968 9.61979 3.59736 9.78685 3.66657C9.95391 3.73579 10.1349 3.76457 10.3152 3.7506C10.4955 3.73662 10.67 3.68027 10.8243 3.58613C11.8523 2.95991 13.0295 4.13641 12.4032 5.16502C12.3092 5.31934 12.253 5.49368 12.239 5.67384C12.2251 5.854 12.2538 6.03491 12.323 6.20187C12.3921 6.36883 12.4997 6.51711 12.6369 6.63468C12.7741 6.75225 12.9371 6.83577 13.1127 6.87847C14.2826 7.16227 14.2826 8.82643 13.1127 9.11023C12.937 9.15281 12.7738 9.23629 12.6364 9.35386C12.499 9.47144 12.3913 9.61979 12.3221 9.78685C12.2529 9.95391 12.2241 10.1349 12.2381 10.3152C12.2521 10.4955 12.3084 10.67 12.4026 10.8243C13.0288 11.8523 11.8523 13.0295 10.8237 12.4032C10.6694 12.3092 10.495 12.253 10.3149 12.239C10.1347 12.2251 9.95379 12.2538 9.78683 12.323C9.61987 12.3921 9.47159 12.4997 9.35402 12.6369C9.23645 12.7741 9.15293 12.9371 9.11023 13.1127C8.82643 14.2826 7.16227 14.2826 6.87847 13.1127C6.83589 12.937 6.75241 12.7738 6.63484 12.6364C6.51726 12.499 6.36891 12.3913 6.20185 12.3221C6.03479 12.2529 5.85375 12.2241 5.67347 12.2381C5.49318 12.2521 5.31874 12.3084 5.16435 12.4026C4.13641 13.0288 2.95924 11.8523 3.58547 10.8237C3.67947 10.6694 3.73573 10.495 3.74967 10.3149C3.76362 10.1347 3.73486 9.95379 3.66572 9.78683C3.59659 9.61987 3.48904 9.47159 3.35181 9.35402C3.21459 9.23645 3.05155 9.15293 2.87597 9.11023C1.70613 8.82643 1.70613 7.16227 2.87597 6.87847C3.05171 6.83589 3.21491 6.75241 3.3523 6.63484C3.48968 6.51726 3.59736 6.36891 3.66657 6.20185C3.73579 6.03479 3.76457 5.85375 3.7506 5.67347C3.73662 5.49318 3.68027 5.31874 3.58613 5.16435C2.95991 4.13641 4.13641 2.95924 5.16502 3.58547C5.82855 3.99051 6.6946 3.6321 6.87847 2.87597Z" stroke="var(--stroke-0, #A1A1A1)" stroke-width="1.33239" stroke-linecap="round" stroke-linejoin="round"/>
<path id="Vector_2" d="M9.99294 7.99435C9.99294 8.52441 9.78237 9.03276 9.40756 9.40756C9.03276 9.78237 8.52441 9.99294 7.99435 9.99294C7.46429 9.99294 6.95594 9.78237 6.58113 9.40756C6.20633 9.03276 5.99576 8.52441 5.99576 7.99435C5.99576 7.46429 6.20633 6.95594 6.58113 6.58113C6.95594 6.20633 7.46429 5.99576 7.99435 5.99576C8.52441 5.99576 9.03276 6.20633 9.40756 6.58113C9.78237 6.95594 9.99294 7.46429 9.99294 7.99435Z" stroke="var(--stroke-0, #A1A1A1)" stroke-width="1.33239" stroke-linecap="round" stroke-linejoin="round"/>
</g>
</svg>
