<svg preserveAspectRatio="none" width="100%" height="100%" overflow="visible" style="display: block;" viewBox="0 0 23.9922 23.9922" fill="none" xmlns="http://www.w3.org/2000/svg">
<g id="Icon" clip-path="url(#clip0_143_207)">
<path id="Vector" d="M3.60783 4.45155C3.12099 4.9364 2.92705 5.67416 3.04101 6.39392L4.18564 13.6516C4.27561 14.2244 4.72047 14.6742 5.29428 14.7722L13.9555 16.2497C13.9755 16.2527 13.9935 16.2577 14.0124 16.2597L19.4347 17.1854C20.5983 17.3843 21.7149 16.5126 21.9129 15.349C22.1118 14.1854 21.2401 13.0688 20.0765 12.8708L15.378 12.0681L24.0612 3.3849C24.8409 2.60515 24.8409 1.33857 24.0612 0.557819C23.2814 -0.221927 22.0148 -0.221927 21.2341 0.557819L12.5509 9.241L11.7482 4.54252C11.5492 3.3789 10.4336 2.50719 9.26999 2.70612C8.10636 2.90506 7.23465 4.02069 7.43358 5.18431L8.35928 10.6066C8.36128 10.6255 8.36628 10.6435 8.36928 10.6635L9.8468 19.3247C9.94477 19.8985 10.3946 20.3434 10.9674 20.4334L18.2251 21.578C18.9448 21.6919 19.6826 21.498 20.1674 21.0112C20.6523 20.5243 20.8482 19.7886 20.7343 19.0688L19.5896 11.8112C19.4997 11.2383 19.0548 10.7885 18.481 10.6905L12.7259 11.2663L12.6689 11.2563L7.24664 10.3306C6.08302 10.1317 4.96639 11.0034 4.76845 12.167C4.56951 13.3307 5.44123 14.4473 6.60485 14.6452L11.3033 15.448L2.62015 24.1312C1.8404 24.9109 1.8404 26.1775 2.62015 26.9582C3.39989 27.738 4.66648 27.738 5.44723 26.9582L14.1304 18.2751L14.9331 22.9735C15.1321 24.1372 16.2477 25.0089 17.4113 24.8099C18.575 24.611 19.4467 23.4954 19.2477 22.3317L18.322 16.9095C18.32 16.8905 18.315 16.8725 18.312 16.8525L16.8345 8.19134C16.7366 7.61752 16.2867 7.17267 15.7139 7.0827L8.45625 5.93807C7.73648 5.82411 6.99872 6.01804 6.51388 6.50489L3.60783 4.45155Z" fill="var(--fill-0, white)"/>
</g>
<defs>
<clipPath id="clip0_143_207">
<rect width="23.9922" height="23.9922" fill="white"/>
</clipPath>
</defs>
</svg>
