<svg preserveAspectRatio="none" width="100%" height="100%" overflow="visible" style="display: block;" viewBox="0 0 15.9887 15.9887" fill="none" xmlns="http://www.w3.org/2000/svg">
<g id="Icon">
<path id="Vector" d="M2.87663 4.20903C2.59825 4.4874 2.37743 4.81789 2.22677 5.18161C2.07611 5.54533 1.99856 5.93517 1.99856 6.32886C1.99856 6.72255 2.07611 7.11239 2.22677 7.47611C2.37743 7.83983 2.59825 8.17032 2.87663 8.4487L7.99435 13.5664L13.1121 8.4487C13.6743 7.88648 13.9901 7.12395 13.9901 6.32886C13.9901 5.53377 13.6743 4.77124 13.1121 4.20903C12.5499 3.64681 11.7873 3.33096 10.9922 3.33096C10.1971 3.33096 9.43461 3.64681 8.8724 4.20903L7.99435 5.08707L7.1163 4.20903C6.83792 3.93064 6.50744 3.70982 6.14372 3.55916C5.77999 3.4085 5.39016 3.33095 4.99647 3.33095C4.60278 3.33095 4.21294 3.4085 3.84922 3.55916C3.4855 3.70982 3.15501 3.93064 2.87663 4.20903Z" stroke="var(--stroke-0, #155DFC)" stroke-width="1.33239" stroke-linecap="round" stroke-linejoin="round"/>
</g>
</svg>
