<svg preserveAspectRatio="none" width="100%" height="100%" overflow="visible" style="display: block;" viewBox="0 0 13.997 13.997" fill="none" xmlns="http://www.w3.org/2000/svg">
<g id="Icon">
<path id="Vector" d="M6.02163 2.51771C6.27007 1.4936 7.72693 1.4936 7.97537 2.51771C8.01265 2.67156 8.08573 2.81443 8.18866 2.9347C8.29159 3.05497 8.42146 3.14924 8.56771 3.20983C8.71396 3.27042 8.87244 3.29562 9.03027 3.28339C9.1881 3.27115 9.34081 3.22182 9.47597 3.13941C10.3759 2.59119 11.4064 3.62114 10.8582 4.52161C10.7759 4.65672 10.7266 4.80933 10.7144 4.96705C10.7022 5.12477 10.7274 5.28315 10.7879 5.42931C10.8484 5.57547 10.9426 5.70528 11.0627 5.8082C11.1829 5.91112 11.3256 5.98425 11.4793 6.02163C12.5034 6.27007 12.5034 7.72693 11.4793 7.97537C11.3254 8.01265 11.1826 8.08573 11.0623 8.18866C10.942 8.29159 10.8478 8.42146 10.7872 8.56771C10.7266 8.71396 10.7014 8.87244 10.7136 9.03027C10.7259 9.1881 10.7752 9.34081 10.8576 9.47597C11.4058 10.3759 10.3759 11.4064 9.47539 10.8582C9.34028 10.7759 9.18767 10.7266 9.02995 10.7144C8.87223 10.7022 8.71385 10.7274 8.56769 10.7879C8.42153 10.8484 8.29172 10.9426 8.1888 11.0627C8.08588 11.1829 8.01275 11.3256 7.97537 11.4793C7.72693 12.5034 6.27007 12.5034 6.02163 11.4793C5.98435 11.3254 5.91127 11.1826 5.80834 11.0623C5.70541 10.942 5.57554 10.8478 5.42929 10.7872C5.28304 10.7266 5.12456 10.7014 4.96673 10.7136C4.8089 10.7259 4.65619 10.7752 4.52103 10.8576C3.62114 11.4058 2.59061 10.3759 3.13883 9.47539C3.22112 9.34028 3.27037 9.18767 3.28258 9.02995C3.29479 8.87223 3.26961 8.71385 3.20909 8.56769C3.14857 8.42153 3.05441 8.29172 2.93428 8.1888C2.81415 8.08588 2.67142 8.01275 2.51771 7.97537C1.4936 7.72693 1.4936 6.27007 2.51771 6.02163C2.67156 5.98435 2.81443 5.91127 2.9347 5.80834C3.05497 5.70541 3.14924 5.57554 3.20983 5.42929C3.27042 5.28304 3.29562 5.12456 3.28339 4.96673C3.27115 4.8089 3.22182 4.65619 3.13941 4.52103C2.59119 3.62114 3.62114 2.59061 4.52161 3.13883C5.10249 3.49342 5.86066 3.17965 6.02163 2.51771Z" stroke="var(--stroke-0, #171717)" stroke-width="1.16642" stroke-linecap="round" stroke-linejoin="round"/>
</g>
</svg>
