<svg preserveAspectRatio="none" width="100%" height="100%" overflow="visible" style="display: block;" viewBox="0 0 15.9887 15.9887" fill="none" xmlns="http://www.w3.org/2000/svg">
<g id="Icon" clip-path="url(#clip0_143_197)">
<path id="Vector" d="M9.99294 7.99435C9.99294 8.52441 9.78237 9.03276 9.40756 9.40756C9.03276 9.78237 8.52441 9.99294 7.99435 9.99294C7.46429 9.99294 6.95594 9.78237 6.58113 9.40756C6.20633 9.03276 5.99576 8.52441 5.99576 7.99435C5.99576 7.46429 6.20633 6.95594 6.58113 6.58113C6.95594 6.20633 7.46429 5.99576 7.99435 5.99576C8.52441 5.99576 9.03276 6.20633 9.40756 6.58113C9.78237 6.95594 9.99294 7.46429 9.99294 7.99435Z" stroke="var(--stroke-0, #F54900)" stroke-width="1.33239" stroke-linecap="round" stroke-linejoin="round"/>
<path id="Vector_2" d="M1.63751 7.99435C2.48624 5.29159 5.01179 3.33098 7.99435 3.33098C10.9776 3.33098 13.5025 5.29159 14.3512 7.99435C13.5025 10.6971 10.9776 12.6577 7.99435 12.6577C5.01179 12.6577 2.48624 10.6971 1.63751 7.99435Z" stroke="var(--stroke-0, #F54900)" stroke-width="1.33239" stroke-linecap="round" stroke-linejoin="round"/>
</g>
<defs>
<clipPath id="clip0_143_197">
<rect width="15.9887" height="15.9887" fill="white"/>
</clipPath>
</defs>
</svg>
