<svg preserveAspectRatio="none" width="100%" height="100%" overflow="visible" style="display: block;" viewBox="0 0 23.9922 23.9922" fill="none" xmlns="http://www.w3.org/2000/svg">
<g id="Icon">
<path id="Vector" d="M21.3431 11.0964H12.176V13.8255H18.6839C18.354 17.6343 15.1851 19.2637 12.186 19.2637C8.35728 19.2637 4.99838 16.2447 4.99838 11.9961C4.99838 7.89743 8.19734 4.72846 12.196 4.72846C15.285 4.72846 17.0944 6.69782 17.0944 6.69782L18.9938 4.71847C18.9938 4.71847 16.5546 1.99935 12.0961 1.99935C6.41791 1.99935 2.02934 6.79779 2.02934 11.9961C2.02934 17.0445 6.158 21.9928 12.246 21.9928C17.5943 21.9928 21.493 18.324 21.493 12.9058C21.493 11.7562 21.3431 11.0964 21.3431 11.0964Z" fill="var(--fill-0, white)"/>
</g>
</svg>
