<svg preserveAspectRatio="none" width="100%" height="100%" overflow="visible" style="display: block;" viewBox="0 0 9.99522 9.99522" fill="none" xmlns="http://www.w3.org/2000/svg">
<g id="Icon">
<path id="Vector" fill-rule="evenodd" clip-rule="evenodd" d="M8.34951 2.64524C8.4432 2.73895 8.49583 2.86605 8.49583 2.99857C8.49583 3.13108 8.4432 3.25818 8.34951 3.3519L4.35142 7.34998C4.2577 7.44368 4.13061 7.49631 3.99809 7.49631C3.86557 7.49631 3.73848 7.44368 3.64476 7.34998L1.64571 5.35094C1.55468 5.25668 1.5043 5.13044 1.50544 4.99941C1.50658 4.86837 1.55914 4.74303 1.6518 4.65037C1.74446 4.55771 1.86981 4.50515 2.00084 4.50401C2.13188 4.50287 2.25812 4.55324 2.35237 4.64428L3.99809 6.28999L7.64285 2.64524C7.73656 2.55154 7.86366 2.49891 7.99618 2.49891C8.12869 2.49891 8.25579 2.55154 8.34951 2.64524Z" fill="var(--fill-0, #0FD46B)"/>
</g>
</svg>
