<svg preserveAspectRatio="none" width="100%" height="100%" overflow="visible" style="display: block;" viewBox="0 0 15.9887 15.9887" fill="none" xmlns="http://www.w3.org/2000/svg">
<g id="Icon">
<path id="Vector" d="M9.87835 9.87835C9.37863 10.3779 8.70096 10.6586 7.99435 10.6586C7.28774 10.6586 6.61007 10.3779 6.11035 9.87835M5.99576 6.66196H6.00242M9.99294 6.66196H9.9996M13.9901 7.99435C13.9901 8.78172 13.835 9.56139 13.5337 10.2888C13.2324 11.0163 12.7908 11.6772 12.234 12.234C11.6772 12.7908 11.0163 13.2324 10.2888 13.5337C9.56139 13.835 8.78172 13.9901 7.99435 13.9901C7.20698 13.9901 6.42731 13.835 5.69987 13.5337C4.97243 13.2324 4.31146 12.7908 3.75471 12.234C3.19795 11.6772 2.7563 11.0163 2.45499 10.2888C2.15367 9.56139 1.99859 8.78172 1.99859 7.99435C1.99859 6.40418 2.63028 4.87913 3.75471 3.75471C4.87913 2.63028 6.40418 1.99859 7.99435 1.99859C9.58453 1.99859 11.1096 2.63028 12.234 3.75471C13.3584 4.87913 13.9901 6.40418 13.9901 7.99435Z" stroke="var(--stroke-0, #0FD46B)" stroke-width="1.33239" stroke-linecap="round" stroke-linejoin="round"/>
</g>
</svg>
