<svg preserveAspectRatio="none" width="100%" height="100%" overflow="visible" style="display: block;" viewBox="0 0 15.9887 15.9887" fill="none" xmlns="http://www.w3.org/2000/svg">
<g id="Icon">
<path id="Vector" fill-rule="evenodd" clip-rule="evenodd" d="M7.99435 14.3898C9.69054 14.3898 11.3173 13.716 12.5166 12.5166C13.716 11.3173 14.3898 9.69054 14.3898 7.99435C14.3898 6.29816 13.716 4.67145 12.5166 3.47206C11.3173 2.27268 9.69054 1.59887 7.99435 1.59887C6.29816 1.59887 4.67145 2.27268 3.47206 3.47206C2.27268 4.67145 1.59887 6.29816 1.59887 7.99435C1.59887 9.69054 2.27268 11.3173 3.47206 12.5166C4.67145 13.716 6.29816 14.3898 7.99435 14.3898ZM10.9579 6.96068C11.1035 6.80991 11.1841 6.60797 11.1822 6.39836C11.1804 6.18875 11.0963 5.98824 10.9481 5.84002C10.7999 5.6918 10.5994 5.60772 10.3898 5.6059C10.1802 5.60408 9.97823 5.68466 9.82745 5.83028L7.19491 8.46282L6.16125 7.42915C6.01047 7.28353 5.80853 7.20295 5.59892 7.20477C5.38931 7.20659 5.1888 7.29067 5.04058 7.43889C4.89236 7.58711 4.80828 7.78762 4.80646 7.99723C4.80464 8.20684 4.88522 8.40878 5.03084 8.55955L6.62971 10.1584C6.77963 10.3083 6.98293 10.3925 7.19491 10.3925C7.4069 10.3925 7.6102 10.3083 7.76012 10.1584L10.9579 6.96068Z" fill="var(--fill-0, #0FD46B)"/>
</g>
</svg>
