<svg preserveAspectRatio="none" width="100%" height="100%" overflow="visible" style="display: block;" viewBox="0 0 13.997 13.997" fill="none" xmlns="http://www.w3.org/2000/svg">
<g id="Icon">
<path id="Vector" d="M5.24888 6.9985H8.74813M5.24888 9.33133H8.74813M9.91454 12.2474H4.08246C3.77311 12.2474 3.47642 12.1245 3.25768 11.9057C3.03893 11.687 2.91604 11.3903 2.91604 11.081V2.91604C2.91604 2.60669 3.03893 2.31001 3.25768 2.09126C3.47642 1.87252 3.77311 1.74963 4.08246 1.74963H7.34026C7.49492 1.74966 7.64324 1.81112 7.75259 1.92051L10.9101 5.07799C11.0195 5.18734 11.0809 5.33566 11.081 5.49032V11.081C11.081 11.3903 10.9581 11.687 10.7393 11.9057C10.5206 12.1245 10.2239 12.2474 9.91454 12.2474Z" stroke="var(--stroke-0, #A1A1A1)" stroke-width="1.16642" stroke-linecap="round" stroke-linejoin="round"/>
</g>
</svg>
