<svg preserveAspectRatio="none" width="100%" height="100%" overflow="visible" style="display: block;" viewBox="0 0 15.9887 15.9887" fill="none" xmlns="http://www.w3.org/2000/svg">
<g id="Icon">
<path id="Vector" d="M5.99576 13.3239L2.36699 11.5092C2.25635 11.4539 2.16329 11.3689 2.09822 11.2637C2.03315 11.1585 1.99865 11.0373 1.99859 10.9136V3.74269C1.99865 3.62917 2.02771 3.51756 2.08302 3.41843C2.13834 3.31931 2.21806 3.23596 2.31463 3.17629C2.4112 3.11663 2.52141 3.08263 2.63481 3.07752C2.74821 3.07242 2.86103 3.09637 2.96257 3.14711L5.99576 4.66337M5.99576 13.3239L9.99294 11.3253M5.99576 13.3239V4.66337M5.99576 4.66337L9.99294 2.66478M9.99294 11.3253L13.0261 12.8416C13.1277 12.8923 13.2405 12.9163 13.3539 12.9112C13.4673 12.9061 13.5775 12.8721 13.6741 12.8124C13.7706 12.7527 13.8504 12.6694 13.9057 12.5703C13.961 12.4711 13.9901 12.3595 13.9901 12.246V5.07508C13.99 4.95139 13.9555 4.83017 13.8905 4.72498C13.8254 4.61979 13.7323 4.53479 13.6217 4.4795L9.99294 2.66478M9.99294 11.3253V2.66478" stroke="var(--stroke-0, #A1A1A1)" stroke-width="1.33239" stroke-linecap="round" stroke-linejoin="round"/>
</g>
</svg>
