<svg preserveAspectRatio="none" width="100%" height="100%" overflow="visible" style="display: block;" viewBox="0 0 15.9887 15.9887" fill="none" xmlns="http://www.w3.org/2000/svg">
<g id="Icon">
<path id="Vector" d="M13.9901 7.99435C13.9901 9.58453 13.3584 11.1096 12.234 12.234C11.1096 13.3584 9.58453 13.9901 7.99435 13.9901M13.9901 7.99435C13.9901 6.40418 13.3584 4.87913 12.234 3.75471C11.1096 2.63028 9.58453 1.99859 7.99435 1.99859M13.9901 7.99435H1.99859M7.99435 13.9901C6.40418 13.9901 4.87913 13.3584 3.75471 12.234C2.63028 11.1096 1.99859 9.58453 1.99859 7.99435M7.99435 13.9901C9.09824 13.9901 9.99294 11.3053 9.99294 7.99435C9.99294 4.68336 9.09824 1.99859 7.99435 1.99859M7.99435 13.9901C6.89046 13.9901 5.99576 11.3053 5.99576 7.99435C5.99576 4.68336 6.89046 1.99859 7.99435 1.99859M7.99435 1.99859C6.40418 1.99859 4.87913 2.63028 3.75471 3.75471C2.63028 4.87913 1.99859 6.40418 1.99859 7.99435" stroke="var(--stroke-0, #A1A1A1)" stroke-width="1.33239" stroke-linecap="round" stroke-linejoin="round"/>
</g>
</svg>
