<svg preserveAspectRatio="none" width="100%" height="100%" overflow="visible" style="display: block;" viewBox="0 0 23.9922 23.9922" fill="none" xmlns="http://www.w3.org/2000/svg">
<g id="Icon">
<path id="Vector" d="M18.7039 19.4937C17.8742 20.7333 16.9945 21.9429 15.6549 21.9629C14.3153 21.9929 13.8855 21.1731 12.366 21.1731C10.8365 21.1731 10.3666 21.9429 9.09704 21.9929C7.78747 22.0428 6.79779 20.6733 5.95806 19.4637C4.24862 16.9945 2.93904 12.446 4.69847 9.38695C5.56819 7.86744 7.12768 6.90775 8.81713 6.87776C10.0967 6.85777 11.3163 7.74748 12.1061 7.74748C12.8858 7.74748 14.3653 6.67783 15.9148 6.83778C16.5646 6.86777 18.384 7.09769 19.5536 8.81713C19.4637 8.87711 17.3843 10.0967 17.4043 12.6259C17.4343 15.6449 20.0535 16.6546 20.0835 16.6646C20.0535 16.7346 19.6636 18.1041 18.7039 19.4937ZM12.9958 3.49886C13.7255 2.66913 14.9351 2.03934 15.9348 1.99935C16.0648 3.16897 15.5949 4.34859 14.8952 5.18831C14.2054 6.03804 13.0658 6.69782 11.9461 6.60785C11.7962 5.45823 12.356 4.25862 12.9958 3.49886Z" fill="var(--fill-0, white)"/>
</g>
</svg>
