<svg preserveAspectRatio="none" width="100%" height="100%" overflow="visible" style="display: block;" viewBox="0 0 23.9922 23.9922" fill="none" xmlns="http://www.w3.org/2000/svg">
<g id="Icon">
<path id="Vector" d="M8.49724 1.99935C8.09954 1.99935 7.71813 2.15733 7.43692 2.43855C7.15571 2.71976 6.99773 3.10117 6.99773 3.49886V7.9974H11.4963C11.894 7.9974 12.2754 7.83942 12.5566 7.5582C12.8378 7.27699 12.9958 6.89558 12.9958 6.49789C12.9958 6.10019 12.8378 5.71879 12.5566 5.43757C12.2754 5.15636 11.894 4.99838 11.4963 4.99838H9.99675V3.49886C9.99675 3.10117 9.83877 2.71976 9.55755 2.43855C9.27634 2.15733 8.89493 1.99935 8.49724 1.99935ZM15.9948 7.9974H11.4963V12.4959C11.4963 12.8936 11.6542 13.275 11.9355 13.5563C12.2167 13.8375 12.5981 13.9954 12.9958 13.9954C13.3935 13.9954 13.7749 13.8375 14.0561 13.5563C14.3373 13.275 14.4953 12.8936 14.4953 12.4959V10.9964H15.9948C16.3925 10.9964 16.7739 10.8384 17.0551 10.5572C17.3363 10.276 17.4943 9.89461 17.4943 9.49691C17.4943 9.09922 17.3363 8.71781 17.0551 8.4366C16.7739 8.15538 16.3925 7.9974 15.9948 7.9974Z" fill="var(--fill-0, white)"/>
</g>
</svg>
