<svg preserveAspectRatio="none" width="100%" height="100%" overflow="visible" style="display: block;" viewBox="0 0 11.9869 11.9869" fill="none" xmlns="http://www.w3.org/2000/svg">
<g id="Icon">
<path id="Vector" d="M4.49509 9.48963V6.4929C4.49509 6.22798 4.38985 5.9739 4.20251 5.78657C4.01518 5.59924 3.76111 5.494 3.49618 5.494H2.49727C2.23234 5.494 1.97827 5.59924 1.79094 5.78657C1.6036 5.9739 1.49836 6.22798 1.49836 6.4929V9.48963C1.49836 9.75456 1.6036 10.0086 1.79094 10.196C1.97827 10.3833 2.23234 10.4885 2.49727 10.4885H3.49618C3.76111 10.4885 4.01518 10.3833 4.20251 10.196C4.38985 10.0086 4.49509 9.75456 4.49509 9.48963ZM4.49509 9.48963V4.49509C4.49509 4.23016 4.60033 3.97608 4.78766 3.78875C4.97499 3.60142 5.22907 3.49618 5.494 3.49618H6.4929C6.75783 3.49618 7.01191 3.60142 7.19924 3.78875C7.38657 3.97608 7.49181 4.23016 7.49181 4.49509V9.48963M4.49509 9.48963C4.49509 9.75456 4.60033 10.0086 4.78766 10.196C4.97499 10.3833 5.22907 10.4885 5.494 10.4885H6.4929C6.75783 10.4885 7.01191 10.3833 7.19924 10.196C7.38657 10.0086 7.49181 9.75456 7.49181 9.48963M7.49181 9.48963V2.49727C7.49181 2.23234 7.59705 1.97827 7.78439 1.79094C7.97172 1.6036 8.22579 1.49836 8.49072 1.49836H9.48963C9.75456 1.49836 10.0086 1.6036 10.196 1.79094C10.3833 1.97827 10.4885 2.23234 10.4885 2.49727V9.48963C10.4885 9.75456 10.3833 10.0086 10.196 10.196C10.0086 10.3833 9.75456 10.4885 9.48963 10.4885H8.49072C8.22579 10.4885 7.97172 10.3833 7.78439 10.196C7.59705 10.0086 7.49181 9.75456 7.49181 9.48963Z" stroke="var(--stroke-0, #A1A1A1)" stroke-width="0.998907" stroke-linecap="round" stroke-linejoin="round"/>
</g>
</svg>
